<svg width="17" height="17" viewBox="0 0 17 17" fill="none" xmlns="http://www.w3.org/2000/svg">
<path d="M11.8586 10.9062L11.4284 11.359C11.4284 11.359 10.406 12.4355 7.61514 9.49724C4.82433 6.55902 5.84676 5.48257 5.84676 5.48257L6.11765 5.19738C6.78498 4.49484 6.84788 3.36692 6.26566 2.54348L5.07474 0.859077C4.35415 -0.160083 2.96174 -0.294714 2.13581 0.574827L0.653411 2.13552C0.243882 2.56668 -0.0305544 3.12559 0.00272774 3.74561C0.0878693 5.33183 0.765668 8.74462 4.54783 12.7266C8.55864 16.9492 12.322 17.117 13.8609 16.9652C14.3477 16.9171 14.771 16.6546 15.1121 16.2955L16.4538 14.8829C17.3594 13.9295 17.1041 12.295 15.9453 11.628L14.141 10.5894C13.3801 10.1515 12.4532 10.2801 11.8586 10.9062Z" fill="white"/>
</svg>
