<svg width="20" height="16" viewBox="0 0 20 16" fill="none" xmlns="http://www.w3.org/2000/svg">
<path d="M17.089 0.77124H2.87462C1.36583 0.77124 0.142578 1.9945 0.142578 3.50328V12.4963C0.142578 14.0051 1.36583 15.2284 2.87462 15.2284H17.089C18.5977 15.2284 19.821 14.0051 19.821 12.4963V3.50328C19.821 1.9945 18.5977 0.77124 17.089 0.77124ZM6.9903 10.5257L3.16453 13.7896C2.89468 14.0199 2.489 13.9879 2.25874 13.7178C2.02844 13.4479 2.06046 13.0422 2.33062 12.812L6.15639 9.54811C6.4262 9.31781 6.83183 9.34982 7.06213 9.61998C7.29243 9.88979 7.26042 10.2955 6.9903 10.5257ZM9.98181 9.28491C9.47009 9.28364 8.97406 9.1136 8.58625 8.77822L8.58656 8.77853L8.58533 8.77761C8.58564 8.77792 8.58599 8.77792 8.58625 8.77822L2.71623 3.68338C2.44796 3.45055 2.4194 3.04491 2.65189 2.77698C2.88469 2.50871 3.29036 2.48015 3.55825 2.71264L9.42993 7.80875C9.55542 7.92044 9.7622 8.00108 9.98181 7.99981C10.2011 8.00046 10.4044 7.92202 10.5368 7.80656L10.5396 7.80406L16.4053 2.71268C16.6733 2.48019 17.0789 2.50875 17.3117 2.77702C17.5442 3.04491 17.5157 3.45059 17.2474 3.68342L11.3758 8.7798C10.9892 9.11168 10.4938 9.28425 9.98181 9.28491ZM17.7051 13.7178C17.4748 13.9879 17.0692 14.0199 16.7994 13.7896L12.9736 10.5257C12.7035 10.2954 12.6715 9.88979 12.9018 9.61998C13.1321 9.34982 13.5377 9.31785 13.8075 9.54811L17.6333 12.812C17.9034 13.0422 17.9354 13.4479 17.7051 13.7178Z" fill="white"/>
</svg>
