<svg width="71" height="71" viewBox="0 0 71 71" fill="none" xmlns="http://www.w3.org/2000/svg">
<rect width="71" height="71" rx="35.5" fill="white" fill-opacity="0.06"/>
<path d="M17.6312 32.1987H21.5519C21.7243 32.1914 21.8876 32.1203 22.0092 31.9995C22.1308 31.8787 22.2018 31.7172 22.208 31.5472V30.359H29.0239C27.3796 31.2561 25.9448 32.4839 24.8126 33.9629C23.6804 35.4419 22.876 37.139 22.4516 38.9443H20.2554C20.1754 38.9419 20.0958 38.9556 20.0213 38.9843C19.9468 39.013 19.8789 39.0562 19.8217 39.1114C19.7646 39.1666 19.7192 39.2325 19.6885 39.3054C19.6578 39.3782 19.6422 39.4564 19.6429 39.5353V44.3944C19.642 44.474 19.6572 44.553 19.6876 44.6268C19.7181 44.7006 19.7631 44.7676 19.8202 44.824C19.8772 44.8804 19.9451 44.925 20.0198 44.9552C20.0945 44.9854 20.1746 45.0006 20.2554 44.9999H25.182C25.2622 45.0004 25.3416 44.9849 25.4156 44.9545C25.4896 44.924 25.5567 44.8793 25.6128 44.8228C25.6689 44.7663 25.713 44.6993 25.7423 44.6257C25.7717 44.5521 25.7857 44.4734 25.7836 44.3944V39.5353C25.7854 39.457 25.7711 39.3791 25.7415 39.3064C25.7119 39.2338 25.6676 39.1678 25.6113 39.1125C25.5551 39.0573 25.488 39.0138 25.4142 38.9849C25.3404 38.956 25.2614 38.9422 25.182 38.9443H23.7328C24.2617 36.9068 25.3271 35.0433 26.8211 33.5424C28.3152 32.0415 30.1848 30.9565 32.2408 30.3974C32.4683 31.0577 32.8997 31.6312 33.4746 32.0374C34.0495 32.4435 34.7389 32.662 35.446 32.6621C36.1532 32.6622 36.8427 32.4439 37.4177 32.0378C37.9926 31.6318 38.4242 31.0584 38.6518 30.3981C40.708 30.9567 42.5779 32.0413 44.072 33.5422C45.5661 35.043 46.6313 36.9067 47.1597 38.9443H45.7108C45.3673 38.9443 45.0609 39.1966 45.0609 39.5353V44.3944C45.0609 44.7331 45.3673 44.9999 45.7108 44.9999H50.6374C50.8036 45.0024 50.9641 44.9403 51.0843 44.8269C51.2044 44.7136 51.2745 44.5582 51.2794 44.3944V39.5353C51.2794 39.1966 50.9808 38.9443 50.6374 38.9443H48.4406C48.0168 37.1391 47.2129 35.442 46.0811 33.9629C44.9493 32.4839 43.5148 31.2561 41.8708 30.359H48.792V31.5472C48.7982 31.7172 48.8692 31.8787 48.9908 31.9995C49.1124 32.1203 49.2757 32.1914 49.4481 32.1987H53.3688C53.7122 32.1987 54 31.8858 54 31.5472V27.68C53.998 27.516 53.9307 27.3593 53.8126 27.2439C53.6945 27.1284 53.5351 27.0634 53.3688 27.0629H49.4481C49.1046 27.0629 48.792 27.3412 48.792 27.68V29.1326H38.818C38.7667 28.285 38.3892 27.4887 37.7625 26.9065C37.1359 26.3243 36.3074 26 35.4464 26C34.5854 26 33.7569 26.3243 33.1302 26.9065C32.5035 27.4887 32.126 28.285 32.0748 29.1326H22.208V27.68C22.208 27.3412 21.8954 27.0629 21.5519 27.0629H17.6312C17.4649 27.0634 17.3055 27.1284 17.1874 27.2439C17.0693 27.3593 17.002 27.516 17 27.68V31.5472C17 31.8858 17.2876 32.1987 17.6312 32.1987ZM24.5399 40.1707V43.7735H20.8866V40.1707H24.5399ZM50.0357 40.1707V43.7735H46.3046V40.1707H50.0357ZM50.0357 28.2894H52.7563V30.9723H50.0357V28.2894ZM33.9366 27.8438C34.2858 27.499 34.7455 27.2843 35.2372 27.2363C35.729 27.1883 36.2224 27.31 36.6334 27.5805C37.0444 27.8511 37.3475 28.2538 37.4911 28.72C37.6348 29.1863 37.61 29.6872 37.4211 30.1375C37.2321 30.5878 36.8907 30.9595 36.455 31.1894C36.0193 31.4192 35.5162 31.493 35.0315 31.398C34.5468 31.3031 34.1105 31.0454 33.797 30.6687C33.4834 30.2921 33.312 29.8199 33.3119 29.3326C33.311 29.0561 33.3658 28.7821 33.473 28.5265C33.5803 28.271 33.7378 28.0389 33.9366 27.8438ZM18.2437 28.2894H20.9643V30.9723H18.2437V28.2894Z" fill="#888888"/>
</svg>
