<svg width="71" height="71" viewBox="0 0 71 71" fill="none" xmlns="http://www.w3.org/2000/svg">
<rect width="71" height="71" rx="35.5" fill="white" fill-opacity="0.06"/>
<path d="M46.2301 30.6809V31.1809H46.7301H47.6574C49.5518 31.1809 50.9152 32.9999 50.3839 34.8181L47.7803 43.7259C47.4262 44.9371 46.3158 45.7695 45.0539 45.7695H24.4539C22.2702 45.7695 20.5 43.9994 20.5 41.8156V28.4539C20.5 26.2702 22.2702 24.5 24.4539 24.5H28.3576C28.4968 24.5 28.6318 24.5473 28.7406 24.6343L31.2112 26.6089L31.3482 26.7183H31.5234H42.2762C44.46 26.7183 46.2301 28.4885 46.2301 30.6722V30.6809ZM28.2794 25.8364L28.1425 25.727H27.9673H24.4539C22.9479 25.727 21.727 26.9479 21.727 28.4539V39.2697L22.707 39.4097L24.5105 33.226C24.864 32.014 25.9749 31.1809 27.2373 31.1809H44.5032H45.0032V30.6809V30.6722C45.0032 29.1662 43.7823 27.9453 42.2762 27.9453H31.1331C30.9939 27.9453 30.8589 27.8979 30.7501 27.811C30.7501 27.811 30.7501 27.811 30.7501 27.811L28.2794 25.8364ZM25.6884 33.5695L25.6884 33.5695L23.0903 42.4773C22.7891 43.5099 23.5636 44.5426 24.6392 44.5426H45.0539C45.7705 44.5426 46.4015 44.0699 46.6025 43.3818C46.6025 43.3818 46.6025 43.3818 46.6025 43.3818L49.206 34.474C49.5081 33.4411 48.7335 32.4078 47.6574 32.4078H27.2373C26.5202 32.4078 25.8892 32.8811 25.6884 33.5695Z" fill="#888888" stroke="#888888"/>
</svg>
