<svg width="71" height="71" viewBox="0 0 71 71" fill="none" xmlns="http://www.w3.org/2000/svg">
<rect width="71" height="71" rx="35.5" fill="white" fill-opacity="0.06"/>
<path d="M19.3798 32.6664H21.9245C22.1372 32.6664 22.3043 32.834 22.3043 33.0473C22.3043 33.2605 22.1372 33.4281 21.9245 33.4281H19.3798C19.1671 33.4281 19 33.2605 19 33.0473C19 32.834 19.1671 32.6664 19.3798 32.6664ZM50.0755 32.6664H52.6202C52.8329 32.6664 53 32.834 53 33.0473C53 33.2605 52.8329 33.4281 52.6202 33.4281H50.0755C49.8628 33.4281 49.6957 33.2605 49.6957 33.0473C49.6957 32.834 49.8628 32.6664 50.0755 32.6664ZM24.5147 20.9893L26.315 22.7945C26.4669 22.9469 26.4669 23.183 26.315 23.3354C26.2391 23.4115 26.1403 23.4496 26.0492 23.4496C25.9504 23.4496 25.8517 23.4115 25.7833 23.3354L23.983 21.5301C23.8311 21.3777 23.8311 21.1416 23.983 20.9893C24.1349 20.8369 24.3704 20.8445 24.5147 20.9893ZM36 19.3135C35.7873 19.3135 35.6202 19.1459 35.6202 18.9326V16.3809C35.6202 16.1676 35.7873 16 36 16C36.2127 16 36.3798 16.1676 36.3798 16.3809V18.9326C36.3798 19.1383 36.2051 19.3135 36 19.3135ZM45.9508 23.4496C45.8521 23.4496 45.7534 23.4115 45.685 23.3354C45.5331 23.183 45.5331 22.9469 45.685 22.7945L47.4853 20.9893C47.6372 20.8369 47.8727 20.8369 48.0246 20.9893C48.1765 21.1416 48.1765 21.3777 48.0246 21.5301L46.2243 23.3354C46.1483 23.4115 46.0496 23.4496 45.9508 23.4496ZM20.2913 26.5193C20.3749 26.3213 20.5952 26.2299 20.7851 26.3137L23.1323 27.2887C23.3298 27.3725 23.4209 27.5934 23.3374 27.7838C23.2766 27.9285 23.1323 28.0199 22.9879 28.0199C22.9424 28.0199 22.8892 28.0123 22.8436 27.9895L20.4964 27.0145C20.3065 26.9383 20.2154 26.7174 20.2913 26.5193ZM30.7587 20.357C30.7131 20.3799 30.66 20.3875 30.6144 20.3875C30.4625 20.3875 30.3257 20.2961 30.265 20.1514L29.2927 17.7977C29.2091 17.5996 29.3079 17.3787 29.4978 17.3025C29.6953 17.2188 29.9156 17.3178 29.9915 17.5082L30.9638 19.8619C31.0474 20.0523 30.9486 20.2732 30.7587 20.357ZM41.735 20.1514C41.6743 20.2961 41.5299 20.3875 41.3856 20.3875C41.34 20.3875 41.2869 20.3799 41.2413 20.357C41.0438 20.2732 40.9526 20.0523 41.0362 19.8619L42.0085 17.5082C42.092 17.3102 42.3123 17.2188 42.5022 17.3025C42.6997 17.3863 42.7909 17.6072 42.7073 17.7977L41.735 20.1514ZM48.8601 27.2887L51.2073 26.3137C51.4048 26.2299 51.6251 26.3289 51.7011 26.5193C51.7846 26.7174 51.6859 26.9383 51.496 27.0145L49.1488 27.9895C49.1032 28.0123 49.05 28.0199 49.0045 28.0199C48.8525 28.0199 48.7158 27.9285 48.655 27.7838C48.5715 27.5934 48.6626 27.3725 48.8601 27.2887ZM34.6859 21.4311C41.8034 20.6541 47.6448 26.2527 47.6448 33.0396C47.6448 35.8199 46.6573 38.5088 44.8722 40.6111C43.1859 42.5916 42.2971 44.892 42.2971 47.2762V48.8682H43.1403C43.353 48.8682 43.5201 49.0357 43.5201 49.249C43.5201 49.4623 43.353 49.6299 43.1403 49.6299H42.2971V49.7746C42.2971 50.7877 41.4768 51.6104 40.4665 51.6104H39.7449C39.555 53.507 37.9446 55 35.9924 55C34.0402 55 32.4298 53.5146 32.2399 51.6104H31.5183C30.508 51.6104 29.6877 50.7877 29.6877 49.7746V49.6299H28.8597C28.647 49.6299 28.4799 49.4623 28.4799 49.249C28.4799 49.0357 28.647 48.8682 28.8597 48.8682H29.7029V47.2762C29.7029 44.8311 28.8597 42.5535 27.3329 40.8473C25.0541 38.3031 24.0058 34.883 24.454 31.4705C25.1452 26.2223 29.4218 22.0176 34.6859 21.4311ZM36 54.2383C37.5344 54.2383 38.7954 53.0881 38.9853 51.6104H33.0147C33.2046 53.0881 34.4656 54.2383 36 54.2383ZM30.4625 49.7746C30.4625 50.3687 30.941 50.8486 31.5335 50.8486C34.3289 50.8486 37.7699 50.8486 40.4741 50.8486C41.0666 50.8486 41.5451 50.3687 41.5451 49.7746V47.657C40.2994 47.657 32.1716 47.657 30.4625 47.657V49.7746ZM34.6327 29.9318H37.3673C37.1926 29.6195 36.5545 28.4541 36.5013 28.3627C36.4026 28.1799 36.2127 28.0656 36 28.0656C35.7873 28.0656 35.5974 28.1799 35.4987 28.3627L34.6327 29.9318ZM37.7851 30.6936H34.2073L32.8476 33.1539H39.1448L37.7851 30.6936ZM32.5818 33.9156V46.8953H35.6202V33.9156H32.5818ZM39.4182 33.9156H36.3798V46.8953H39.4182V33.9156ZM27.895 40.3369C29.4674 42.0889 30.3713 44.4045 30.4549 46.8953H31.8222V33.5348C31.8222 33.4814 31.8374 33.4053 31.8677 33.352L34.8226 27.9971C35.0581 27.5629 35.4987 27.3115 35.9924 27.3115C36.4861 27.3115 36.9191 27.5705 37.1546 27.9971L40.1171 33.352C40.1475 33.4129 40.1626 33.4814 40.1626 33.5348V46.8953H41.5451C41.6363 44.4959 42.6086 42.1041 44.2949 40.116C45.966 38.1508 46.8852 35.6371 46.8852 33.032C46.8852 26.7402 41.4692 21.4463 34.7694 22.1852C29.87 22.726 25.8441 26.6717 25.206 31.5619C24.7882 34.7611 25.7681 37.9604 27.895 40.3369Z" fill="#888888" stroke="#888888" stroke-width="0.5"/>
</svg>
