<svg width="1920" height="1094" viewBox="0 0 1920 1094" fill="none" xmlns="http://www.w3.org/2000/svg">
<mask id="mask0_325_695" style="mask-type:alpha" maskUnits="userSpaceOnUse" x="0" y="0" width="1920" height="1094">
<rect width="1920" height="1094" fill="url(#paint0_linear_325_695)" fill-opacity="0.06"/>
</mask>
<g mask="url(#mask0_325_695)">
<path d="M1686.98 -957.484C1688.58 -860.485 1684.56 -763.39 1674.55 -666.861C1670.09 -623.916 1664.3 -580.259 1644.55 -541.944C1594.04 -443.895 1471.16 -410.35 1361.37 -401.195C1260.21 -392.895 1157.93 -396.558 1057.71 -412.233C958.289 -427.731 859.074 -455.151 758.803 -447.073C658.354 -438.952 553.053 -384.959 521.95 -289.154C503.464 -232.318 514.192 -168.7 540.503 -115.031C566.86 -61.1841 607.65 -15.8666 650.695 25.681C700.13 73.1573 755.281 120.138 777.089 185.114C799.83 252.303 779.561 332.007 727.606 380.118C653.479 448.689 541.005 445.705 440.199 452.409C312.321 460.837 181.066 494.04 82.9848 576.737C-14.9633 659.212 -71.6156 799.5 -28.9432 920.457M1660.68 -970.652C1662.33 -875.736 1658.12 -780.856 1648.11 -686.588C1643.56 -644.75 1637.55 -601.979 1618.38 -564.374C1569.37 -468.587 1450.88 -434.073 1344.67 -423.373C1319.33 -420.766 1294.03 -418.986 1268.77 -418.034C1195.7 -414.915 1122.44 -418.531 1050.06 -428.397C953.441 -441.772 856.8 -466.448 758.967 -457.665C661.178 -448.706 562.036 -394.943 526.583 -304.449C513.293 -270.398 506.963 -235.647 509.584 -200.511C511.258 -176.628 516.389 -152.485 524.62 -129.499C528.387 -119.017 532.819 -108.639 537.915 -98.3659C558.226 -57.3172 589.123 -19.8731 621.035 14.8664C624.29 18.3181 627.486 21.7847 630.622 25.2661C680.553 78.4581 732.656 132.799 752.21 201.545C770.74 267.721 752.727 344.409 702.1 391.808C630.098 459.091 521.394 458.362 424.447 466.922C416.826 467.583 409.175 468.377 401.495 469.304C285.898 482.366 170.511 517.983 83.7219 594.637C-8.77674 676.307 -60.9143 812.822 -17.7158 929.879M1634.25 -983.596C1636.07 -890.985 1631.68 -798.32 1621.49 -706.267C1616.9 -665.36 1610.98 -623.741 1592.33 -587.023C1544.69 -493.276 1430.72 -458.016 1327.98 -445.548C1303.49 -442.529 1279 -440.263 1254.51 -438.75C1183.79 -434.527 1112.67 -436.418 1042.37 -444.736C948.632 -455.634 854.521 -477.743 759.348 -468.123C663.997 -458.457 570.217 -405.102 531.255 -319.566C515.441 -285.067 503.79 -251.993 501.891 -216.85C500.552 -192.963 502.803 -168.284 508.732 -143.965C511.407 -132.831 514.953 -121.729 519.371 -110.657C536.762 -66.2362 568.418 -25.0266 600.912 13.523C604.108 17.2407 607.319 21.0175 610.545 24.8532C661.015 83.9381 710.293 145.019 727.149 218.022C742.177 283.008 725.71 356.857 676.589 403.501C606.712 469.495 501.734 470.844 408.689 481.436C401.364 482.274 394.053 483.171 386.757 484.127C275.728 499.62 165.971 536.647 84.4541 612.54C-2.59507 693.404 -50.2627 825.969 -6.53804 939.125M1607.96 -996.765C1609.64 -906.192 1605.25 -815.787 1595.06 -725.994C1590.37 -686.194 1584.4 -645.506 1566.29 -609.675C1520.02 -517.969 1410.4 -481.917 1311.11 -467.682C1287.6 -464.28 1263.97 -461.602 1240.22 -459.647C1171.94 -453.965 1103.03 -454.53 1034.91 -460.946C943.829 -469.499 852.292 -488.864 759.558 -478.538C666.823 -468.212 578.05 -415.174 535.713 -334.817C517.417 -299.695 500.402 -268.474 494.16 -233.369C490.029 -209.346 489.046 -184.041 492.85 -158.434C494.462 -146.782 497.05 -134.999 500.612 -123.084C515.261 -75.3354 547.764 -30.0058 580.75 11.9995C584.065 16.1896 587.306 20.3356 590.473 24.4374C641.617 89.1933 687.935 157.235 702.095 234.497C713.753 298.069 698.922 369.434 651.217 414.968C583.333 479.897 482.302 483.455 392.938 495.947C385.908 496.962 378.893 498.036 371.893 499.169C265.565 516.87 161.659 555.44 85.0155 630.484C3.59305 710.498 -39.6045 839.113 4.51363 948.59M1581.52 -1009.71C1583.34 -921.619 1578.81 -833.252 1568.44 -745.675C1563.71 -706.806 1557.65 -667.225 1540.06 -632.281C1495.34 -542.66 1390.24 -505.861 1294.46 -489.681C1271.77 -485.985 1248.94 -482.88 1225.96 -480.365C1160.03 -473.578 1093.43 -472.463 1027.26 -477.109C938.799 -483.495 850.013 -500.161 759.894 -489.174C669.642 -477.965 585.078 -425.42 540.385 -349.935C519.21 -314.277 497.007 -284.953 486.644 -249.754C479.5 -225.726 475.461 -199.841 476.74 -173.034C477.378 -160.76 479.036 -148.178 482.068 -135.376C493.797 -84.2554 527.104 -34.9832 560.582 10.4778C563.868 15.0521 567.139 19.5672 570.395 24.0233C622.035 94.4949 665.659 169.055 677.034 250.973C685.809 312.821 671.906 381.881 625.706 426.66C559.77 490.344 462.641 495.935 377.18 510.461C370.446 511.652 363.727 512.903 357.023 514.212C255.439 534.3 157.164 574.28 85.7922 648.563C9.77469 727.594 -28.9082 852.436 15.6915 957.836M1555.23 -1022.88C1557.08 -936.868 1552.55 -850.761 1541.82 -765.355C1537.18 -727.638 1531.07 -688.988 1514.06 -654.754C1470.49 -567.305 1369.91 -529.76 1277.76 -511.857C1255.85 -507.601 1233.87 -504.083 1211.84 -501.304C1148.17 -493.014 1083.65 -490.35 1019.57 -493.448C933.992 -497.357 847.736 -511.456 760.1 -499.587C672.464 -487.717 591.532 -435.709 544.883 -365.007C521.006 -328.857 493.792 -301.477 478.954 -266.093C468.796 -242.061 461.922 -215.463 460.854 -187.5C460.341 -174.56 461.025 -161.356 463.349 -147.622C472.291 -93.3519 506.401 -40.1369 540.284 9.17871C543.629 13.9892 546.99 18.8587 550.365 23.7873C602.632 99.7528 643.386 180.875 652.152 267.406C658.089 327.707 645.113 394.461 600.198 438.352C536.387 500.748 443.205 508.549 361.425 524.975C354.986 526.343 348.563 527.77 342.154 529.257C245.271 551.553 152.626 592.943 86.5265 666.465C15.9585 744.691 -18.2545 865.582 26.9159 967.259M1528.98 -1035.87C1530.65 -952.075 1526.12 -868.228 1515.34 -785.259C1510.52 -748.25 1504.28 -710.885 1487.84 -677.361C1445.82 -591.998 1349.58 -553.661 1261.07 -534.035C1240.01 -529.366 1218.85 -525.362 1197.58 -522.023C1136.14 -512.407 1074.06 -508.284 1011.93 -509.613C929.145 -511.398 845.463 -522.754 760.486 -510.046C675.288 -497.471 597.591 -446.089 549.517 -380.303C522.45 -343.351 490.403 -317.958 471.267 -282.435C458.273 -258.443 448.341 -231.265 444.972 -201.969C443.44 -188.584 443.194 -174.581 444.589 -160.048C450.655 -102.229 485.746 -45.1158 520.122 7.65549C523.556 12.8204 526.946 18.0592 530.292 23.3719C583.101 105.23 621.426 192.427 627.097 283.881C630.683 342.324 618.102 406.907 574.648 449.865C513.007 511.15 423.55 521.028 345.717 539.664C339.545 541.091 333.402 542.636 327.289 544.299C235.107 568.804 148.136 611.781 87.0872 684.41C22.1458 761.785 -7.55252 878.903 38.144 976.68M1502.5 -1048.99C1504.39 -967.324 1499.68 -885.693 1488.72 -804.938C1484.03 -768.905 1477.7 -732.648 1461.79 -700.011C1421.15 -616.688 1329.47 -577.427 1244.37 -556.211C1224.17 -551.13 1203.81 -546.698 1183.28 -542.917C1124.23 -532.019 1064.41 -526.393 1004.46 -525.819C924.338 -525.26 843.185 -534.05 760.647 -520.636C678.109 -507.223 591.625 -464.557 554.191 -395.419C517.855 -363.86 487.055 -334.259 463.708 -298.996C447.746 -274.823 434.757 -247.064 429.085 -216.435C426.402 -202.384 425.183 -187.759 426.047 -172.34C429.193 -111.148 465.087 -50.0922 499.955 6.13482C503.361 11.6838 506.781 17.2917 510.216 22.9588C563.697 110.488 599.594 203.759 602.038 300.358C603.494 357.077 591.087 419.354 549.316 461.512C489.623 521.554 403.936 533.687 329.961 554.178C324.085 555.782 318.282 557.43 312.553 559.122C224.938 586.058 143.597 630.444 87.8209 702.312C28.329 778.882 3.1007 892.05 49.3234 985.927M1476.2 -1062.16C1478.13 -982.574 1473.24 -903.158 1462.27 -824.664C1457.32 -789.694 1451.12 -754.412 1435.57 -722.617C1396.42 -641.556 1309.14 -601.326 1227.68 -578.387C1208.33 -572.894 1188.77 -568.036 1168.98 -563.812C1112.37 -551.455 1054.64 -544.282 996.764 -542.16C919.528 -539.123 840.906 -545.346 761.028 -531.095C680.928 -516.976 597.056 -475.91 558.642 -410.67C518.671 -379.327 483.66 -350.738 456.015 -315.337C437.039 -291.159 421.171 -262.864 413.196 -230.903C409.318 -216.363 407.346 -200.983 407.325 -184.587C407.684 -120.245 444.426 -55.0698 479.831 4.79009C483.326 10.6934 486.762 16.6117 490.138 22.5447C544.115 115.79 577.982 215.223 576.977 316.835C576.436 371.606 564.292 431.934 523.804 473.203C466.236 531.957 384.453 546.123 314.203 568.691C308.622 570.472 303.115 572.296 297.682 574.165C214.59 603.355 139.101 649.284 88.5971 720.391C34.5101 795.978 13.7518 905.195 60.5452 995.349M1449.77 -1075.1C1451.88 -997.823 1446.8 -920.623 1435.66 -844.344C1430.83 -810.349 1424.37 -776.13 1409.57 -745.09C1371.75 -666.246 1288.98 -625.27 1210.98 -600.563C1192.38 -594.628 1173.69 -589.298 1154.9 -584.574C1100.51 -570.891 1045.04 -562.214 989.118 -558.322C914.678 -553.163 838.806 -556.687 761.19 -541.685C683.75 -526.728 602.49 -487.261 563.317 -425.786C519.712 -394.66 480.445 -367.262 448.502 -331.721C426.513 -307.539 407.632 -278.486 397.134 -245.325C392.281 -230.163 389.335 -214.162 388.739 -197.056C386.223 -129.165 423.724 -60.2239 459.489 3.31351C463.073 9.57123 466.597 15.8437 470.063 22.1312C524.536 121.092 556.727 226.599 551.919 333.311C549.779 386.224 537.278 444.381 498.296 484.895C442.854 542.361 364.84 558.781 298.448 583.205C293.163 585.162 287.951 587.164 282.814 589.21C204.423 620.608 134.785 668.079 89.1548 738.337C40.6945 813.075 24.4508 918.519 71.7257 1004.59M1423.47 -1088.27C1425.45 -1013.03 1420.59 -937.956 1409.22 -864.07C1404.13 -831.138 1397.79 -797.894 1383.52 -767.74C1346.9 -690.893 1268.66 -649.17 1194.29 -622.74C1176.54 -616.393 1158.65 -610.636 1140.61 -605.469C1088.6 -590.505 1035.26 -580.103 981.652 -574.53C909.874 -567.026 836.577 -567.806 761.575 -552.144C686.574 -536.482 608.104 -498.658 567.95 -441.081C520.711 -410.171 477.056 -383.742 440.769 -348.239C415.811 -323.875 393.874 -294.242 381.206 -259.97C375.379 -244.186 371.371 -227.164 370.023 -209.304C364.72 -138.263 403.068 -65.2016 439.326 1.79151C442.881 8.43332 446.435 15.0752 449.99 21.717C505.135 126.349 535.652 237.929 527.04 349.743C523.081 400.664 510.488 456.96 472.923 496.365C419.295 552.808 345.184 571.261 282.695 597.718C277.706 599.852 272.79 602.03 267.948 604.253C194.258 637.86 130.25 686.742 89.8917 756.238C46.8809 830.17 35.1072 931.664 82.9528 1014.02M1397.05 -1101.22C1399.15 -1028.46 1394.16 -955.421 1382.61 -883.75C1377.64 -851.794 1371.04 -819.613 1357.3 -790.346C1322.23 -715.584 1248.33 -673.069 1177.6 -644.917C1160.71 -638.157 1143.63 -631.914 1126.35 -626.187C1076.75 -609.941 1025.62 -598.213 973.964 -590.871C905.025 -581.066 834.303 -579.103 761.784 -562.558C689.398 -546.235 613.54 -510.01 572.45 -456.154C521.71 -425.682 473.666 -400.221 433.082 -364.579C405.287 -340.255 380.294 -310.042 365.323 -274.437C358.345 -257.987 353.54 -240.388 351.263 -221.729C343.084 -147.138 382.413 -70.1791 419.163 0.269732C422.807 7.26591 426.407 14.336 429.962 21.48C485.603 131.828 514.976 249.347 502.029 366.397C496.604 415.237 483.477 469.407 447.417 508.056C395.915 563.211 325.751 583.874 266.943 612.231C262.367 614.512 257.747 616.868 253.083 619.297C184.093 655.113 125.76 705.581 90.629 774.14C53.0677 847.266 45.8087 944.987 94.1804 1023.44M1370.75 -1114.38C1372.89 -1043.71 1367.72 -972.886 1356.16 -903.475C1350.93 -872.582 1344.46 -841.376 1331.26 -812.996C1297.55 -740.274 1228.22 -696.836 1160.77 -666.871C1144.83 -659.847 1128.65 -653.265 1112.23 -647.126C1064.84 -629.554 1016.02 -616.145 966.315 -607.033C900.216 -594.929 832.023 -590.399 762.12 -573.193C692.217 -555.987 618.971 -521.361 577.078 -471.448C522.704 -441.193 470.493 -416.568 425.565 -380.964C394.758 -356.636 366.707 -325.842 349.434 -288.904C341.26 -271.965 335.526 -253.567 332.718 -234.02C321.619 -156.058 361.707 -75.3332 399.039 -1.07434C402.654 6.30593 406.269 13.6862 409.884 21.0665C466.198 137.085 494.472 260.722 476.967 382.874C470.167 429.988 456.637 481.81 421.905 519.747C372.529 573.615 306.135 596.532 251.184 626.744C246.904 629.202 242.624 631.661 238.344 634.119C173.922 672.366 121.263 724.421 91.1832 792.086C59.2485 864.362 56.4595 958.133 105.357 1032.69M1344.27 -1127.51C1346.45 -1058.91 1341.28 -990.352 1329.55 -923.157C1324.45 -893.238 1317.71 -863.095 1305.08 -835.426C1272.88 -764.966 1207.89 -720.736 1144.07 -689.049C1128.9 -681.464 1113.53 -674.396 1097.97 -667.845C1052.98 -648.991 1006.25 -634.034 958.848 -623.242C895.366 -608.97 829.747 -601.696 762.327 -583.607C695.04 -565.741 631.907 -524.615 581.754 -486.567C529.698 -447.097 467.102 -433.048 417.876 -397.305C384.055 -372.972 353.17 -341.465 333.372 -303.328C324.224 -285.766 317.516 -266.746 314.001 -246.269C300.115 -165.156 341.228 -80.356 378.698 -2.55224C382.52 5.15269 386.224 12.8874 389.81 20.6517C446.619 142.386 474.592 272.316 451.91 399.349C443.866 444.516 429.669 494.433 396.575 531.393C349.147 584.017 286.478 609.012 235.475 641.434C231.461 643.951 227.462 646.527 223.477 649.162C163.756 689.618 116.727 743.083 91.9638 810.164C65.4341 881.458 67.115 971.278 116.584 1042.11M1318.02 -1140.49C1320.2 -1074.16 1314.84 -1007.82 1303.11 -942.881C1297.74 -914.026 1291.09 -885.036 1279.03 -858.076C1248.2 -789.656 1187.73 -744.68 1127.38 -711.225C1113.06 -703.228 1098.5 -695.732 1083.67 -688.739C1040.94 -668.382 996.606 -652.144 951.158 -639.581C890.56 -622.832 827.471 -612.992 762.666 -594.242C697.862 -575.493 636.232 -536.63 586.208 -501.816C530.118 -462.651 463.71 -449.527 410.141 -413.822C373.529 -389.352 339.586 -357.265 317.486 -317.794C307.32 -299.788 299.682 -279.97 295.415 -258.737C278.653 -174.075 320.57 -85.3328 358.532 -4.07336C362.325 4.01566 366.059 12.1194 369.734 20.2382C427.217 147.643 454.934 284.043 427.029 415.782C417.786 459.177 402.655 506.88 371.023 542.908C325.764 594.421 267.042 621.626 219.72 655.948C216.001 658.642 212.298 661.394 208.609 664.206C153.588 706.87 112.411 761.878 92.6985 828.066C71.6182 898.554 77.8138 984.601 127.764 1051.35M1291.72 -1153.66C1293.94 -1089.41 1288.41 -1025.28 1276.49 -962.562C1271.26 -934.682 1264.52 -906.799 1252.81 -880.682C1223.35 -814.303 1167.4 -768.58 1110.69 -733.402C1097.23 -724.992 1083.46 -717.07 1069.38 -709.634C1029.04 -687.996 986.831 -670.032 943.512 -655.745C885.577 -636.651 825.194 -624.289 762.873 -604.657C700.728 -585.069 640.735 -548.69 590.883 -516.934C530.45 -478.56 460.495 -466.051 402.629 -430.207C363.003 -405.733 326.003 -373.065 301.556 -332.439C290.283 -313.59 281.672 -293.149 276.696 -270.985C257.192 -182.996 299.868 -90.4878 338.411 -5.41831C342.146 2.93667 345.895 11.3508 349.659 19.8239C407.682 153.122 435.851 295.813 401.971 432.258C391.573 474.06 375.863 519.459 345.514 554.599C302.381 604.824 247.385 634.106 203.965 670.461C200.542 673.331 197.134 676.261 193.741 679.249C143.465 724.3 107.874 780.54 93.2561 846.012C77.8026 915.65 88.4681 997.746 138.989 1060.77M1265.29 -1166.61C1267.51 -1104.62 1262.15 -1042.79 1250.05 -982.288C1244.59 -955.293 1237.76 -928.518 1226.76 -903.333C1198.67 -838.994 1147.07 -792.479 1093.99 -755.578C1081.39 -746.756 1068.49 -738.363 1055.3 -730.397C1017.18 -707.432 977.233 -687.965 935.866 -671.908C880.726 -650.691 822.962 -635.408 763.256 -615.115C703.549 -594.822 645.015 -560.882 595.381 -532.007C530.736 -494.646 457.148 -482.353 394.938 -446.547C352.299 -422.069 312.42 -388.865 285.67 -346.906C273.202 -327.568 263.66 -306.328 258.11 -283.455C235.509 -192.049 279.21 -95.4653 318.246 -6.94009C322.069 1.76926 325.849 10.5526 329.584 19.4098C388.28 158.379 417.034 307.894 376.912 448.734C365.493 488.721 348.849 531.906 320.006 566.29C278.997 615.227 227.771 646.763 188.209 684.974C185.082 688.021 181.955 691.068 178.828 694.116C133.297 741.552 103.38 799.38 93.9904 863.913C83.9863 932.746 99.1665 1011.07 150.036 1070.24M1239 -1179.78C1241.21 -1120.04 1235.71 -1060.26 1223.43 -1001.97C1218.06 -976.127 1211.19 -950.282 1200.59 -925.762C1173.96 -863.862 1126.92 -816.424 1077.3 -777.755C1065.44 -768.492 1053.34 -759.671 1041 -751.292C1005.32 -726.869 967.635 -705.898 928.354 -688.294C875.92 -664.555 820.686 -646.705 763.418 -625.707C706.372 -604.575 649.651 -573.164 600.012 -547.302C530.934 -511.087 453.757 -498.833 387.204 -463.065C341.773 -438.45 298.705 -404.444 269.608 -361.33C256.343 -341.414 245.828 -319.552 239.392 -295.703C214.049 -200.969 258.553 -100.443 297.904 -8.41767C301.846 0.764191 305.73 9.96092 309.554 19.1725C368.701 163.68 398.84 320.194 351.855 465.21C339.503 503.736 322.013 544.308 294.631 577.759C255.438 625.674 208.291 659.199 172.455 699.487C169.624 702.711 166.851 705.92 164.138 709.115C122.953 758.849 98.8881 818.219 94.7705 881.991C90.1713 949.841 109.822 1024.21 161.217 1079.49M1212.56 -1192.72C1214.95 -1135.29 1209.27 -1077.72 1196.81 -1021.65C1191.4 -996.737 1184.43 -972 1174.54 -948.411C1149.28 -888.552 1106.63 -840.145 1060.6 -799.931C1049.6 -790.255 1038.31 -780.947 1026.74 -772.009C993.409 -746.481 957.813 -723.963 920.706 -704.455C871.067 -678.593 818.584 -658.045 763.799 -636.164C709.191 -614.327 654.062 -585.577 604.685 -562.418C530.996 -528.058 450.539 -515.356 379.688 -479.449C331.244 -454.829 285.119 -420.243 253.72 -375.796C239.259 -355.391 227.814 -332.73 220.671 -307.949C192.54 -210.065 237.848 -105.597 277.781 -9.76107C281.782 -0.342968 285.681 9.16396 289.476 18.7596C349.119 168.983 381.13 332.939 326.971 481.643C313.465 518.575 295.041 556.933 269.12 589.452C232.052 636.078 188.676 671.857 156.698 714.001C154.162 717.402 151.685 720.788 149.268 724.159C112.783 776.103 94.348 836.882 95.3256 899.938C96.3531 966.938 120.473 1037.36 172.44 1088.91M1186.27 -1205.89C1188.52 -1150.5 1182.84 -1095.19 1170.37 -1041.37C1164.69 -1017.53 1157.86 -993.765 1148.5 -971.063C1124.61 -913.244 1086.48 -864.09 1043.95 -821.931C1033.78 -811.961 1023.33 -802.3 1012.62 -792.949C981.551 -765.918 948.218 -741.896 913.063 -720.62C866.263 -692.457 816.31 -669.342 764.008 -646.578C712.016 -624.081 658.787 -598.258 609.141 -577.669C531.195 -545.252 447.15 -531.837 372.001 -495.79C320.543 -471.166 271.538 -436.044 237.837 -390.264C222.225 -369.193 209.983 -345.955 202.088 -320.42C171.082 -218.987 217.192 -110.575 257.618 -11.2838C261.591 -1.48165 265.519 8.3946 269.404 18.3446C329.72 174.239 363.868 345.947 301.916 498.119C287.476 533.59 268.207 569.334 243.614 601.142C208.672 646.48 169.198 684.292 140.945 728.513C138.705 732.091 136.524 735.654 134.402 739.202C102.619 793.354 89.8577 855.721 96.0629 917.839C102.54 984.033 131.175 1050.68 183.623 1098.15M1159.79 -1219.01C1162.26 -1165.75 1156.4 -1112.65 1143.76 -1061.06C1138.21 -1038.18 1131.28 -1015.53 1122.27 -993.669C1099.76 -937.891 1066.15 -887.99 1027.26 -844.108C1017.94 -833.726 1008.31 -823.579 998.367 -813.668C969.692 -785.355 938.443 -759.785 905.551 -737.005C861.458 -706.321 814.035 -680.639 764.348 -657.215C714.838 -633.834 663.688 -610.983 613.817 -592.787C531.303 -562.801 443.759 -548.317 364.311 -512.131C310.018 -487.547 257.956 -451.844 221.952 -404.732C205.144 -383.172 191.973 -359.135 183.37 -332.668C149.621 -227.907 196.535 -115.553 237.453 -12.8061C241.397 -2.61978 245.356 7.62558 249.329 17.93C310.185 179.717 347.093 359.397 276.858 514.594C261.531 548.782 241.194 581.78 218.284 612.788C185.289 656.883 149.586 696.949 125.191 743.026C123.246 746.78 121.361 750.52 119.535 754.245C92.4518 810.606 85.498 874.338 96.6212 935.784C108.725 1001.13 141.83 1063.83 194.849 1107.58M1133.54 -1232C1140.44 -1086.97 1080.56 -943.047 984.066 -834.562C887.574 -726.077 756.91 -651.575 618.447 -608.081C531.32 -580.703 440.588 -564.663 356.753 -528.692C272.963 -492.545 194.127 -431.456 164.828 -344.959C127.938 -236.959 175.877 -120.53 217.154 -14.1054C285.075 160.788 335.798 363.181 251.799 531.072C210.132 614.839 138.041 681.767 104.622 769.112C58.3997 890.198 102 1039.56 206.073 1117M-77.1532 834.809C-87.1106 754.203 -7.56936 686.044 72.6832 673.479C152.936 661.032 233.425 686.873 312.967 703.35C392.508 719.945 482.007 725.398 548.39 678.694C633.384 618.951 652.943 493.182 740.308 436.995C808.47 393.255 897.138 406.413 966.841 438.892C1006.32 457.384 1039.86 488.322 1077.56 509.896C1248.5 607.69 1260.11 807.545 1405.33 837.298C1562.63 869.659 1647.98 792.965 1677.61 739.742C1715.67 671.582 1779.09 494.842 1623.8 372.036C1560.61 322.132 1498.26 268.908 1451.91 203.12C1382.33 104.852 1382.8 -45.5729 1471.71 -126.89C1532.64 -182.603 1626.29 -202.991 1667.66 -274.47C1695.4 -322.478 1691.6 -384.354 1667.78 -434.496C1643.83 -484.519 1602.1 -524.111 1556.94 -556.234M-73.5988 838.839C-80.4742 755.863 -1.28854 684.266 81.3348 669.923C162.061 656.054 243.855 681.658 323.396 699.912C401.989 718.049 489.236 726.228 555.5 683.791C640.02 629.382 663.847 510.015 751.094 454.658C820.559 410.68 907.805 418.859 979.286 447.308C1020.3 463.666 1056.69 492.827 1096.17 514.756C1263.55 607.453 1277.3 800.907 1419.43 830.304C1572.23 861.836 1657.22 789.29 1688.04 736.896C1727.16 670.634 1787.62 500.295 1640.75 378.793C1580.29 328.77 1520.31 274.48 1474.55 209.165C1407.1 113.15 1406.51 -31.9409 1490.44 -112.547C1548.4 -168.26 1638.61 -191.019 1679.87 -261.43C1708.2 -309.675 1706.42 -370.723 1685.56 -421.101C1664.46 -472.073 1625.93 -513.916 1582.54 -548.411M-69.9228 842.751C-73.7161 757.523 4.99534 682.369 89.9895 666.367C171.072 651.075 254.288 676.561 333.829 696.594C411.474 716.153 496.468 727.058 562.495 688.77C646.778 639.814 674.517 526.611 761.882 472.202C832.651 427.987 918.712 431.306 991.615 455.725C1034.29 470.068 1073.41 497.45 1114.78 519.617C1278.37 607.572 1294.61 794.151 1433.54 823.193C1581.95 854.013 1666.35 785.498 1698.36 734.052C1738.54 669.567 1796.16 505.511 1657.82 385.669C1599.85 335.29 1542.24 280.17 1497.31 215.211C1431.88 121.566 1430.1 -18.19 1509.05 -98.0847C1564.29 -153.916 1651.06 -178.928 1692.08 -248.509C1720.88 -296.873 1721.24 -357.09 1703.34 -407.824C1685.08 -459.626 1649.76 -503.722 1608.03 -540.587M-66.3658 846.781C-67.0771 759.3 11.1602 680.591 98.6438 662.81C180.2 646.215 264.602 671.345 344.262 693.156C420.958 714.137 503.818 727.888 569.609 693.867C653.417 650.245 685.305 543.442 772.552 489.745C844.743 445.412 929.619 443.752 1004.06 464.141C1048.4 476.35 1090.24 502.073 1133.39 524.476C1293.07 607.809 1311.8 787.512 1447.64 816.08C1591.55 846.189 1675.48 781.822 1708.67 731.207C1749.81 668.5 1804.69 510.726 1674.89 392.425C1619.53 341.928 1564.29 285.622 1519.95 221.256C1456.89 129.745 1453.81 -4.55862 1527.66 -83.6235C1580.06 -139.573 1663.39 -166.956 1704.41 -235.589C1733.45 -284.19 1736.06 -343.577 1721.12 -394.549C1705.71 -447.298 1673.58 -493.528 1633.64 -532.764M-62.8089 850.811C-60.3195 760.96 17.4436 678.931 107.298 659.254C189.21 641.473 275.034 666.129 354.575 689.718C430.442 712.122 511.05 728.599 576.603 698.964C660.175 660.676 696.212 560.156 783.34 507.288C856.835 462.718 940.525 455.961 1016.51 472.557C1062.62 482.514 1107.08 506.577 1152 529.336C1307.77 608.164 1329.1 780.755 1461.75 808.967C1601.28 838.365 1684.61 778.148 1718.99 728.362C1761.19 667.433 1813.23 515.705 1691.96 399.182C1639.09 348.447 1586.34 291.194 1542.6 227.302C1481.67 138.042 1477.4 8.95461 1546.39 -69.1619C1595.82 -125.23 1675.72 -154.983 1716.62 -222.55C1746.13 -271.506 1750.87 -329.945 1738.9 -381.272C1726.34 -434.97 1697.41 -483.334 1659.24 -524.94M-59.136 854.842C-53.6831 762.738 23.7244 677.153 115.95 655.698C198.336 636.613 285.464 660.914 365.005 686.281C439.923 710.107 518.398 729.547 583.714 703.943C666.93 671.345 706.997 576.989 794.006 524.951C869.043 480.143 951.548 468.289 1028.96 480.973C1076.73 488.796 1123.79 511.2 1170.61 534.196C1322.23 608.757 1346.29 774.117 1475.74 801.855C1610.88 830.541 1693.74 774.473 1729.42 725.517C1772.45 666.366 1821.76 520.683 1709.03 406.057C1658.65 354.849 1608.27 296.883 1565.36 233.347C1506.44 146.34 1500.99 22.4679 1565 -54.8189C1611.7 -111.006 1688.16 -142.893 1728.82 -209.629C1758.81 -258.704 1765.81 -316.432 1756.68 -367.996C1747.08 -422.761 1721.24 -473.139 1684.84 -517.117M-55.5799 858.872C-47.0449 764.397 30.007 675.494 124.603 652.142C207.345 631.753 295.777 655.698 375.437 682.843C449.406 708.092 525.629 730.377 590.708 709.04C673.687 681.776 717.784 593.702 804.794 542.494C881.134 497.45 962.572 480.38 1041.28 489.389C1090.95 494.96 1140.5 515.823 1189.22 539.175C1336.57 609.587 1363.6 767.479 1489.84 794.743C1620.6 822.718 1702.86 770.68 1739.73 722.672C1783.83 665.299 1830.41 525.306 1726.1 412.813C1678.21 361.368 1630.32 302.455 1588 239.392C1531.22 154.638 1524.58 35.8627 1583.73 -40.3572C1627.47 -96.7813 1700.49 -130.92 1741.15 -196.709C1771.5 -245.902 1780.74 -303.037 1774.46 -354.72C1767.82 -410.551 1745.06 -462.945 1710.45 -509.293M-51.9052 862.903C-40.2881 766.176 36.2896 673.835 133.256 648.586C216.473 627.012 306.208 650.364 385.868 679.406C458.89 706.077 532.86 731.207 597.82 714.138C680.325 692.327 728.571 610.535 815.581 560.038C893.225 514.875 973.715 492.472 1053.73 497.806C1105.06 501.125 1157.22 520.565 1207.72 544.036C1350.91 610.417 1380.79 760.723 1503.95 787.631C1630.2 814.895 1711.87 767.005 1750.04 719.827C1795.09 664.233 1839.19 529.93 1743.17 419.689C1697.88 367.651 1652.25 308.027 1610.76 245.438C1555.99 163.055 1548.17 49.2581 1602.34 -25.895C1643.24 -82.6747 1712.94 -118.947 1753.36 -183.669C1784.3 -233.218 1795.68 -289.524 1792.24 -341.443C1788.57 -398.223 1768.89 -452.75 1735.94 -501.47M-48.349 866.933C-33.6498 767.835 42.4537 672.175 141.91 645.029C225.6 622.27 316.64 645.148 396.3 675.968C468.373 703.943 540.09 732.036 604.814 719.116C687.082 702.758 739.477 627.367 826.249 577.581C905.435 532.3 984.739 504.562 1066.18 506.103C1119.28 507.17 1173.93 525.188 1226.33 548.895C1365.14 611.483 1398.09 754.084 1518.06 780.637C1639.8 807.19 1721 763.212 1760.47 716.982C1806.23 663.047 1848.08 534.315 1760.24 426.445C1717.44 373.933 1674.29 313.597 1633.4 251.483C1580.77 171.352 1571.76 62.5339 1621.07 -11.5524C1659 -68.5692 1725.27 -106.857 1765.57 -170.749C1796.98 -220.416 1810.74 -276.129 1810.14 -328.167C1809.43 -386.014 1792.72 -442.557 1761.54 -493.646M-44.7928 870.963C-26.893 769.494 48.7364 670.515 150.563 641.474C234.728 617.529 327.072 639.814 406.613 672.649C477.856 701.928 547.321 732.866 611.926 724.213C693.72 713.189 750.264 644.2 837.037 595.244C917.526 549.725 995.882 516.416 1078.51 514.519C1133.51 513.334 1190.65 529.929 1244.94 553.755C1379.36 612.669 1415.28 747.328 1532.16 773.525C1649.52 799.366 1730.01 759.537 1770.79 714.137C1817.49 661.98 1856.97 538.464 1777.31 433.321C1737 380.216 1696.22 319.287 1656.04 257.41C1605.54 179.768 1595.23 75.6916 1639.68 2.90925C1674.77 -54.5817 1737.71 -94.8846 1777.9 -157.828C1809.67 -207.733 1825.79 -262.734 1827.92 -314.891C1830.29 -373.805 1816.43 -432.362 1787.15 -485.823M-41.1163 874.993C-20.253 771.272 55.0208 668.856 159.219 637.917C243.739 612.906 337.505 634.48 417.046 669.211C487.341 699.794 554.673 733.696 618.922 729.31C700.479 723.739 761.172 661.032 847.707 612.787C929.738 567.15 1006.91 528.388 1090.95 522.935C1147.62 519.261 1207.24 534.671 1263.55 558.615C1393.47 613.854 1432.59 740.69 1546.27 766.413C1659.12 791.543 1739.02 755.744 1781.1 711.292C1828.76 660.914 1865.98 542.494 1794.26 440.077C1756.56 386.261 1718.16 324.858 1678.8 263.456C1630.32 188.066 1618.58 88.8492 1658.29 17.3708C1690.54 -40.4758 1750.16 -82.7938 1790.11 -144.789C1822.35 -194.931 1840.85 -249.221 1845.71 -301.615C1851.28 -361.595 1840.25 -422.287 1812.75 -477.999M-37.5601 879.023C-13.4962 772.932 61.3035 667.315 167.872 634.361C252.866 608.164 347.818 629.145 427.478 665.774C496.824 697.66 561.904 734.526 626.035 734.407C707.117 734.17 772.078 677.864 858.494 630.331C941.829 584.575 1017.93 540.242 1103.4 531.352C1161.84 525.306 1223.96 539.412 1282.16 563.475C1407.58 615.276 1449.78 734.051 1560.38 759.3C1668.84 783.719 1748.03 752.069 1791.42 708.447C1839.9 659.728 1875.22 546.287 1811.33 446.953C1776.24 392.306 1740.21 330.548 1701.44 269.501C1655.09 196.482 1641.93 102.007 1677.02 31.714C1706.18 -26.6067 1762.61 -70.8214 1802.32 -131.868C1835.04 -182.129 1856.02 -235.826 1863.49 -288.339C1872.26 -349.386 1864.08 -412.092 1838.36 -470.176M-33.8854 883.054C-6.85795 774.71 67.7046 665.773 176.526 630.805C261.994 603.422 358.368 623.693 437.909 662.336C506.426 695.527 569.135 735.355 633.028 739.386C713.874 744.601 782.865 694.697 869.282 647.874C954.039 602 1029.08 551.977 1115.85 539.768C1176.07 531.233 1240.55 544.272 1300.77 568.335C1421.57 616.699 1466.97 727.532 1574.37 752.188C1678.44 776.132 1757.04 748.276 1801.85 705.602C1851.04 658.543 1884.71 549.962 1828.4 453.709C1796.04 398.352 1762.14 336.119 1724.2 275.546C1679.87 204.779 1665.17 114.928 1695.63 46.1755C1721.83 -12.6194 1775.06 -58.7306 1814.53 -118.829C1847.84 -169.327 1871.19 -222.313 1881.27 -275.062C1893.24 -337.176 1887.91 -401.898 1863.84 -462.234M-30.3292 887.084C-0.101136 776.369 73.9872 664.232 185.179 627.249C271.122 598.8 368.8 618.358 448.341 658.898C515.909 693.393 576.366 736.067 640.141 744.483C720.512 755.033 793.77 711.529 879.95 665.536C966.248 619.425 1040.1 563.831 1128.18 548.184C1190.17 537.16 1257.15 549.132 1319.38 573.195C1435.55 618.24 1484.27 720.894 1588.47 745.076C1688.05 768.309 1766.05 744.483 1812.16 702.757C1862.18 657.357 1894.31 553.4 1845.47 460.584C1815.83 404.16 1784.07 341.809 1746.84 281.592C1704.52 213.195 1688.28 127.967 1714.36 60.6371C1737.36 1.13106 1787.5 -46.6398 1826.86 -105.909C1860.52 -156.643 1886.37 -208.918 1899.05 -261.786C1914.22 -324.967 1911.73 -391.704 1889.45 -454.41M-26.6545 891.114C6.53708 778.029 80.2698 662.692 193.832 623.693C280.249 594.177 379.231 612.905 458.772 655.461C525.511 691.141 583.596 736.896 647.135 749.58C727.269 765.464 804.558 728.48 890.737 683.08C978.339 636.85 1051.12 575.566 1140.62 556.6C1204.4 543.087 1273.74 554.111 1337.99 578.174C1449.54 619.899 1501.46 714.137 1602.58 738.082C1697.77 760.485 1775.06 740.571 1822.47 699.794C1873.33 656.172 1904.15 556.719 1862.54 467.341C1835.75 409.969 1806 347.381 1769.48 287.637C1729.3 221.612 1711.28 140.769 1732.97 75.0988C1752.77 15 1799.95 -34.6675 1839.07 -92.9882C1873.21 -143.841 1901.54 -195.405 1916.83 -248.51C1935.32 -312.639 1935.56 -381.51 1915.05 -446.587M-23.0983 895.145C13.2939 779.808 86.5525 661.151 202.486 620.137C289.377 589.554 389.663 607.572 469.086 652.024C534.995 689.008 590.946 737.727 654.247 754.559C733.907 775.896 815.463 745.313 901.406 700.624C990.549 654.276 1062.03 587.302 1153.07 565.017C1218.5 548.896 1290.34 559.09 1356.6 583.035C1463.53 621.559 1518.77 707.499 1616.68 730.97C1707.37 752.662 1783.95 736.778 1832.79 696.949C1884.47 654.987 1914.34 559.92 1879.61 474.217C1855.9 415.659 1827.93 353.071 1792.24 293.683C1753.96 229.91 1734.28 153.69 1751.7 89.4423C1768.06 28.7508 1812.4 -22.5761 1851.28 -79.9485C1886.01 -131.038 1916.83 -181.891 1934.73 -235.233C1956.42 -300.429 1959.39 -371.315 1940.66 -438.763M-19.5421 899.175C19.9322 781.467 92.9537 659.729 211.139 616.699C298.504 584.813 400.213 602.119 479.517 648.586C544.596 686.755 598.177 738.438 661.241 759.656C740.664 786.327 826.369 762.145 912.193 718.168C1002.76 671.819 1073.05 598.918 1165.4 573.433C1232.61 554.822 1306.94 564.187 1375.22 587.895C1477.52 623.337 1535.96 700.743 1630.79 723.858C1716.97 744.839 1792.96 732.866 1843.22 694.105C1895.61 653.683 1924.66 563.002 1896.68 480.973C1876.29 421.349 1849.86 358.642 1814.89 299.729C1778.61 238.326 1757.04 166.611 1770.31 103.904C1783.24 42.6198 1824.84 -10.4853 1863.61 -67.0279C1898.69 -118.236 1932.12 -168.378 1952.51 -221.957C1977.64 -288.101 1983.21 -361.121 1966.26 -430.94M-15.8674 903.205C26.6889 783.245 99.2363 658.187 219.793 613.143C307.632 580.189 410.645 596.666 489.949 645.266C554.08 684.621 605.408 739.148 668.354 764.753C747.421 796.521 837.275 779.096 922.98 735.829C1014.97 689.244 1083.96 610.653 1177.84 581.73C1246.72 560.63 1323.41 569.284 1393.83 592.754C1491.39 625.234 1553.27 693.867 1644.9 716.745C1726.69 736.778 1801.85 729.073 1853.53 691.259C1906.64 652.497 1935.32 566.083 1913.75 487.848C1896.92 427.038 1871.67 364.331 1837.65 305.655C1803.39 246.742 1779.68 179.531 1788.93 118.365C1798.29 56.3698 1837.29 1.60516 1875.82 -54.1077C1911.5 -105.435 1947.42 -154.746 1970.29 -208.681C1998.74 -275.655 2007.04 -350.927 1991.75 -423.116M-12.3112 907.235C33.3272 784.904 105.637 656.765 228.446 609.586C316.76 575.566 421.195 591.094 500.38 641.829C563.681 682.369 612.757 739.978 675.347 769.731C754.177 807.071 848.181 795.928 933.649 753.373C1027.06 706.788 1094.87 622.27 1190.29 590.146C1260.7 566.439 1339.89 574.618 1412.44 597.614C1505.37 627.13 1570.57 687.229 1659 709.633C1736.41 729.073 1810.74 725.161 1863.84 688.414C1917.78 651.193 1946.35 569.284 1930.82 494.605C1917.78 432.609 1893.6 370.021 1860.29 311.701C1828.04 255.158 1802.32 192.451 1807.65 132.708C1813.23 70.2387 1849.74 13.5775 1888.03 -41.0685C1924.18 -92.6325 1962.71 -141.233 1988.07 -195.405C2019.96 -263.327 2030.75 -340.733 2017.35 -415.293M-8.63657 911.266C39.9654 786.682 111.92 655.224 237.1 606.03C325.887 571.062 431.745 585.642 510.812 638.391C573.283 680.117 619.988 740.808 682.46 774.829C760.816 817.502 859.086 812.998 944.436 770.917C1039.39 724.45 1105.77 633.887 1202.62 598.563C1274.81 572.247 1356.37 579.952 1431.05 602.474C1519.24 629.145 1587.76 680.591 1673.11 702.52C1746.01 721.249 1819.63 721.249 1874.16 685.57C1928.8 649.89 1957.61 572.603 1947.89 501.48C1939.12 438.299 1915.41 375.711 1883.05 317.746C1852.58 263.574 1824.72 205.372 1826.27 147.17C1827.92 84.1076 1862.3 25.7869 1900.35 -28.1478C1937.1 -79.8304 1978 -127.601 2005.86 -182.129C2041.06 -250.881 2054.58 -330.538 2042.96 -407.469M-5.08038 915.178C46.7222 788.342 118.321 654.039 245.753 602.475C335.133 566.558 442.295 580.071 521.125 634.954C582.885 677.865 627.219 741.52 689.454 779.926C767.572 827.934 869.992 829.83 955.105 788.461C1051.6 741.875 1116.68 645.504 1215.07 606.979C1288.92 578.056 1372.84 585.524 1449.66 607.335C1533.23 631.161 1605.07 673.834 1687.1 695.408C1755.73 713.426 1828.64 717.219 1884.59 682.725C1939.95 648.586 1969.11 576.159 1964.84 508.237C1960.81 444.108 1937.34 381.401 1905.69 323.792C1877.24 271.991 1847.13 218.53 1845 161.632C1842.51 97.977 1874.75 37.7597 1912.56 -15.2268C1949.79 -67.0279 1993.29 -113.969 2023.64 -168.852C2062.28 -238.434 2078.4 -320.344 2068.56 -399.645M-1.52418 919.208C53.3605 790.002 124.722 652.379 254.407 598.919C344.261 561.816 452.845 574.618 531.556 631.516C592.605 675.613 634.569 742.349 696.566 785.023C774.211 838.365 880.779 846.782 965.892 806.123C1063.69 759.301 1127.46 657.239 1227.51 615.395C1302.91 583.864 1389.2 591.214 1468.27 612.195C1547.22 633.295 1622.26 667.196 1701.2 688.415C1765.34 705.603 1837.53 713.308 1894.9 679.88C1951.09 647.282 1980.96 580.071 1981.91 515.112C1982.98 450.035 1959.03 387.091 1928.33 329.837C1901.89 280.407 1869.41 231.806 1863.61 176.094C1856.97 112.083 1887.08 49.8506 1924.77 -2.18755C1962.47 -54.2257 2008.58 -100.337 2041.42 -155.576C2083.5 -225.987 2102.23 -310.149 2094.17 -391.822" stroke="#6A79F0" stroke-width="2"/>
</g>
<defs>
<linearGradient id="paint0_linear_325_695" x1="960" y1="0" x2="960" y2="1094" gradientUnits="userSpaceOnUse">
<stop stop-color="#090A13" stop-opacity="0"/>
<stop offset="0.505208" stop-color="#090A13"/>
<stop offset="0.71875" stop-color="#090A13" stop-opacity="0"/>
</linearGradient>
</defs>
</svg>
