<svg width="104" height="62" viewBox="0 0 104 62" fill="none" xmlns="http://www.w3.org/2000/svg">
<path d="M0.844662 10.8897C-0.0569661 11.5277 -0.270618 12.7759 0.367458 13.6775C1.00553 14.5792 2.25371 14.7928 3.15534 14.1547L0.844662 10.8897ZM46 12.5222L44.2111 13.4166L44.2536 13.5016L44.304 13.5822L46 12.5222ZM83.2205 59.9354C83.7247 60.9182 84.9302 61.3061 85.9129 60.8019L101.928 52.5854C102.911 52.0812 103.299 50.8758 102.795 49.893C102.291 48.9102 101.085 48.5223 100.102 49.0265L85.8665 56.33L78.563 42.0942C78.0587 41.1115 76.8533 40.7235 75.8705 41.2277C74.8877 41.7319 74.4998 42.9374 75.004 43.9201L83.2205 59.9354ZM3.15534 14.1547C8.42892 10.4227 16.8405 5.99936 24.9245 4.72272C28.9482 4.0873 32.759 4.2522 36.0341 5.5424C39.2601 6.8132 42.1196 9.23346 44.2111 13.4166L47.7889 11.6278C45.2804 6.61095 41.6941 3.47288 37.5002 1.82076C33.3556 0.188046 28.7726 0.065449 24.3005 0.771688C15.3929 2.17839 6.40441 6.95507 0.844662 10.8897L3.15534 14.1547ZM44.304 13.5822C45.7277 15.8601 46.2226 17.454 46.2879 18.5053C46.3476 19.4662 46.0577 19.9953 45.6827 20.3609L48.4751 23.2249C49.7237 22.0076 50.4087 20.3244 50.2803 18.2573C50.1575 16.2806 49.3012 14.0306 47.696 11.4622L44.304 13.5822ZM38.741 16.9744C37.9482 14.6485 38.0277 12.3411 39.643 10.2882C41.3491 8.11994 45.0423 5.87034 52.3708 4.48761L51.6292 0.556959C43.9113 2.01317 39.0814 4.53344 36.4995 7.8147C33.8268 11.2114 33.8534 15.0331 34.9549 18.2648L38.741 16.9744ZM52.3708 4.48761C59.8888 3.06912 64.3528 4.91155 67.0695 7.83837C69.907 10.8954 71.2036 15.5186 71.4949 20.2851L75.4875 20.0411C75.171 14.8623 73.7455 9.15115 70.0012 5.11716C66.136 0.952972 60.1583 -1.05231 51.6292 0.556959L52.3708 4.48761ZM65.3634 28.7772C64.7035 28.4795 63.616 27.5328 63.8305 23.8412L59.8372 23.6092C59.5815 28.0099 60.8381 31.1241 63.7189 32.4234L65.3634 28.7772ZM71.626 13.6857C75.3286 12.4409 78.4568 12.4378 80.9066 13.426C83.3184 14.3989 85.3619 16.4483 86.7128 19.9117C89.4746 26.9921 89.1555 39.5825 83.0962 58.4097L86.9038 59.6352C93.0316 40.5952 93.7223 26.8745 90.4394 18.4581C88.7679 14.1732 86.0254 11.1777 82.4029 9.71646C78.8185 8.27059 74.6641 8.44429 70.3513 9.89425L71.626 13.6857ZM63.8305 23.8412C64.0967 19.2608 67.2592 15.1538 71.626 13.6857L70.3513 9.89425C64.4546 11.8767 60.1993 17.3798 59.8372 23.6092L63.8305 23.8412ZM71.4949 20.2851C71.6383 22.6311 70.8207 25.3515 69.4685 27.1638C68.8023 28.0567 68.0908 28.617 67.4301 28.8739C66.8231 29.1101 66.1577 29.1354 65.3634 28.7772L63.7189 32.4234C65.4931 33.2237 67.2737 33.2267 68.8801 32.6019C70.4328 31.998 71.7023 30.8588 72.6744 29.5559C74.5989 26.9766 75.6879 23.32 75.4875 20.0411L71.4949 20.2851ZM45.6827 20.3609C44.8453 21.1774 43.6143 21.3394 42.1326 20.6611C40.6236 19.9703 39.2771 18.5473 38.741 16.9744L34.9549 18.2648C35.8695 20.9483 38.0286 23.1815 40.4675 24.2981C42.9337 25.4271 46.0928 25.5477 48.4751 23.2249L45.6827 20.3609Z" fill="url(#paint0_linear_334_999)"/>
<defs>
<linearGradient id="paint0_linear_334_999" x1="103" y1="47.001" x2="7.24514" y2="58.6424" gradientUnits="userSpaceOnUse">
<stop stop-color="#8B6CDE"/>
<stop offset="0.734375" stop-color="#643ADE"/>
<stop offset="0.984375" stop-color="#050619"/>
</linearGradient>
</defs>
</svg>
