<svg width="131" height="110" viewBox="0 0 131 110" fill="none" xmlns="http://www.w3.org/2000/svg">
<path d="M125.328 2.28454C125.171 1.19113 125.931 0.177787 127.024 0.0211804C128.117 -0.135426 129.131 0.624004 129.287 1.71741L125.328 2.28454ZM17.5373 108.904C16.8371 109.758 15.577 109.883 14.7227 109.183L0.801272 97.7725C-0.0530238 97.0724 -0.177937 95.8122 0.522249 94.9579C1.22243 94.1036 2.48259 93.9787 3.33687 94.6789L15.7115 104.821L25.8539 92.4467C26.5541 91.5924 27.8143 91.4675 28.6686 92.1677C29.5229 92.8679 29.6478 94.1281 28.9476 94.9823L17.5373 108.904ZM58.9625 67.5089L60.3321 66.0514L58.9625 67.5089ZM42.5516 72.5835L44.5224 72.9243L42.5516 72.5835ZM46.8164 85.2839L45.3881 86.6839L46.8164 85.2839ZM129.287 1.71741C131.111 14.4527 131.254 25.5058 125.201 33.7376C119.127 41.9981 107.294 46.8025 86.9371 48.459L86.6127 44.4722C106.735 42.8348 116.994 38.1465 121.978 31.3679C126.984 24.5606 127.153 15.0283 125.328 2.28454L129.287 1.71741ZM86.9371 48.459C71.0751 49.7497 60.8478 53.6538 54.422 58.3027C48.0256 62.9303 45.3135 68.3499 44.5224 72.9243L40.5809 72.2427C41.5536 66.6179 44.8531 60.2885 52.0773 55.0619C59.2721 49.8567 70.2746 45.8016 86.6127 44.4722L86.9371 48.459ZM48.2448 83.884C49.9197 85.5928 51.652 86.7 53.2661 86.9854C54.7228 87.243 56.3858 86.8882 58.2405 84.9608L61.1228 87.7343C58.4753 90.4857 55.5152 91.4452 52.5696 90.9243C49.7814 90.4313 47.3322 88.6673 45.3881 86.6839L48.2448 83.884ZM57.593 68.9664C50.526 62.3256 39.9112 62.322 31.2843 68.8051C22.6941 75.2606 16.0795 88.26 17.9807 107.439L14.0003 107.833C11.99 87.5542 18.9588 73.064 28.8812 65.6074C38.7669 58.1784 51.5939 57.8402 60.3321 66.0514L57.593 68.9664ZM58.2405 84.9608C62.381 80.658 62.0426 73.1477 57.593 68.9664L60.3321 66.0514C66.3063 71.6653 66.9003 81.7302 61.1228 87.7343L58.2405 84.9608ZM44.5224 72.9243C43.849 76.8183 45.3452 80.9257 48.2448 83.884L45.3881 86.6839C41.7257 82.9474 39.6568 77.586 40.5809 72.2427L44.5224 72.9243Z" fill="url(#paint0_linear_334_998)"/>
<defs>
<linearGradient id="paint0_linear_334_998" x1="14" y1="109.881" x2="128" y2="1.88087" gradientUnits="userSpaceOnUse">
<stop stop-color="#8B6CDE"/>
<stop offset="0.734375" stop-color="#643ADE"/>
<stop offset="0.984375" stop-color="#000212"/>
</linearGradient>
</defs>
</svg>
