<svg width="49" height="49" viewBox="0 0 49 49" fill="none" xmlns="http://www.w3.org/2000/svg">
<mask id="mask0_3359_365" style="mask-type:alpha" maskUnits="userSpaceOnUse" x="0" y="0" width="50" height="50">
<path d="M24.5038 36.5069C22.1281 36.5071 19.8056 35.8028 17.8302 34.483C15.8548 33.1633 14.3151 31.2873 13.4058 29.0925C12.4966 26.8976 12.2586 24.4824 12.7221 22.1523C13.1855 19.8222 14.3295 17.6819 16.0094 16.002C17.6893 14.3221 19.8297 13.1781 22.1597 12.7147C24.4898 12.2512 26.905 12.4892 29.0999 13.3984C31.2948 14.3077 33.1707 15.8473 34.4905 17.8228C35.8102 19.7982 36.5146 22.1206 36.5144 24.4964C36.5106 27.6806 35.2439 30.7333 32.9923 32.9849C30.7408 35.2365 27.688 36.5031 24.5038 36.5069ZM24.5038 14.4042C22.5077 14.4041 20.5564 14.9958 18.8967 16.1046C17.2369 17.2134 15.9432 18.7895 15.1792 20.6336C14.4152 22.4777 14.2152 24.5069 14.6045 26.4647C14.9938 28.4224 15.9549 30.2207 17.3663 31.6323C18.7777 33.0438 20.5759 34.005 22.5336 34.3945C24.4913 34.784 26.5206 34.5842 28.3647 33.8204C30.2089 33.0566 31.7851 31.763 32.8941 30.1034C34.0031 28.4437 34.595 26.4925 34.595 24.4964C34.5917 21.821 33.5275 19.256 31.6358 17.3641C29.744 15.4723 27.1792 14.4078 24.5038 14.4042Z" fill="white"/>
<path d="M25.9453 29.3005C25.7586 29.3004 25.576 29.2459 25.4199 29.1436C25.2638 29.0413 25.1408 28.8957 25.0662 28.7247L22.5815 23.0462L20.0978 28.7247C19.9952 28.9566 19.8048 29.1385 19.5685 29.2305C19.3321 29.3225 19.0689 29.3172 18.8364 29.2157C18.604 29.1143 18.4211 28.9249 18.3278 28.689C18.2346 28.4531 18.2385 28.1899 18.3387 27.9569L21.6977 20.2688C21.7725 20.098 21.8955 19.9526 22.0516 19.8506C22.2077 19.7485 22.3902 19.6941 22.5767 19.6941C22.7633 19.6941 22.9457 19.7485 23.1019 19.8506C23.258 19.9526 23.381 20.098 23.4558 20.2688L26.8147 27.9569C26.9165 28.19 26.9216 28.4539 26.8289 28.6907C26.7362 28.9275 26.5534 29.1178 26.3205 29.2199C26.2022 29.2721 26.0745 29.2995 25.9453 29.3005Z" fill="white"/>
<path d="M25.1046 27.3774H20.0576C19.8031 27.3774 19.5589 27.2763 19.379 27.0963C19.199 26.9163 19.0979 26.6722 19.0979 26.4177C19.0979 26.1632 19.199 25.9191 19.379 25.7391C19.5589 25.5591 19.8031 25.458 20.0576 25.458H25.1027C25.3572 25.458 25.6013 25.5591 25.7813 25.7391C25.9613 25.9191 26.0624 26.1632 26.0624 26.4177C26.0624 26.6722 25.9613 26.9163 25.7813 27.0963C25.6013 27.2763 25.3572 27.3774 25.1027 27.3774H25.1046ZM29.7889 29.2997C29.5343 29.2997 29.2902 29.1985 29.1103 29.0186C28.9303 28.8386 28.8292 28.5945 28.8292 28.34V24.5012C28.8292 24.2467 28.9303 24.0026 29.1103 23.8226C29.2902 23.6426 29.5343 23.5415 29.7889 23.5415C30.0434 23.5415 30.2875 23.6426 30.4675 23.8226C30.6474 24.0026 30.7486 24.2467 30.7486 24.5012V28.34C30.7486 28.5945 30.6474 28.8386 30.4675 29.0186C30.2875 29.1985 30.0434 29.2997 29.7889 29.2997ZM29.7889 22.5732C29.726 22.573 29.6633 22.5666 29.6017 22.554C29.5402 22.542 29.48 22.5237 29.4223 22.4993C29.3641 22.4754 29.3085 22.4458 29.2562 22.411C29.1509 22.3415 29.0608 22.2514 28.9914 22.1461C28.9561 22.094 28.9265 22.0384 28.9031 21.9801C28.8786 21.9223 28.8603 21.8622 28.8484 21.8006C28.8228 21.6772 28.8228 21.5498 28.8484 21.4263C28.8604 21.3645 28.8788 21.304 28.9031 21.2459C28.9514 21.1298 29.0218 21.0243 29.1104 20.935C29.155 20.8904 29.2039 20.8502 29.2562 20.815C29.3085 20.7801 29.3641 20.7506 29.4223 20.7267C29.4802 20.7027 29.5403 20.6844 29.6017 20.672C29.7252 20.6471 29.8525 20.6471 29.976 20.672C30.0375 20.6844 30.0976 20.7027 30.1555 20.7267C30.2154 20.7512 30.2726 20.7817 30.3263 20.8179C30.3787 20.8531 30.4275 20.8933 30.4722 20.9378C30.5167 20.9823 30.5566 21.0312 30.5912 21.0837C30.6258 21.1358 30.6554 21.1911 30.6795 21.2488C30.7038 21.3069 30.7221 21.3674 30.7342 21.4292C30.7597 21.5527 30.7597 21.68 30.7342 21.8035C30.7222 21.8651 30.7039 21.9252 30.6795 21.983C30.6556 22.0411 30.626 22.0967 30.5912 22.149C30.5214 22.2532 30.4313 22.3423 30.3263 22.411C30.274 22.4458 30.2184 22.4754 30.1603 22.4993C30.1025 22.5237 30.0424 22.542 29.9808 22.554C29.9176 22.5669 29.8533 22.5733 29.7889 22.5732ZM24.5038 14.4042C24.2493 14.4042 24.0052 14.3032 23.8252 14.1232C23.6453 13.9432 23.5441 13.6991 23.5441 13.4446V6.71808C23.5441 6.46356 23.6453 6.21945 23.8252 6.03948C24.0052 5.8595 24.2493 5.75839 24.5038 5.75839C24.7584 5.75839 25.0025 5.8595 25.1824 6.03948C25.3624 6.21945 25.4635 6.46356 25.4635 6.71808V13.4446C25.4635 13.6991 25.3624 13.9432 25.1824 14.1232C25.0025 14.3032 24.7583 14.4042 24.5038 14.4042Z" fill="white"/>
<path d="M24.5038 7.67754C23.7446 7.67754 23.0024 7.4524 22.3711 7.03059C21.7398 6.60879 21.2478 6.00925 20.9572 5.30781C20.6667 4.60636 20.5907 3.83451 20.7388 3.08987C20.8869 2.34522 21.2525 1.66121 21.7894 1.12435C22.3262 0.58749 23.0103 0.221882 23.7549 0.0737626C24.4995 -0.0743572 25.2714 0.00166327 25.9728 0.292211C26.6743 0.582758 27.2738 1.07478 27.6956 1.70607C28.1174 2.33735 28.3426 3.07954 28.3426 3.83877C28.3405 4.85626 27.9355 5.83148 27.216 6.55095C26.4965 7.27042 25.5213 7.67552 24.5038 7.67754ZM24.5038 1.91171C24.1242 1.91171 23.7531 2.02428 23.4375 2.23518C23.1218 2.44609 22.8758 2.74586 22.7305 3.09658C22.5853 3.4473 22.5472 3.83322 22.6213 4.20555C22.6954 4.57787 22.8782 4.91987 23.1466 5.18831C23.415 5.45674 23.757 5.63954 24.1294 5.7136C24.5017 5.78766 24.8876 5.74965 25.2383 5.60438C25.589 5.4591 25.8888 5.21309 26.0997 4.89745C26.3106 4.58181 26.4232 4.21071 26.4232 3.8311C26.4217 3.32251 26.219 2.83519 25.8593 2.47556C25.4997 2.11594 25.0124 1.91323 24.5038 1.91171ZM32.3186 17.6411C32.1288 17.641 31.9433 17.5847 31.7855 17.4793C31.6277 17.3738 31.5048 17.2239 31.4321 17.0486C31.3595 16.8733 31.3405 16.6803 31.3775 16.4942C31.4145 16.3081 31.5059 16.1371 31.6401 16.0029L36.3963 11.2466C36.5773 11.0718 36.8197 10.9751 37.0714 10.9773C37.323 10.9795 37.5637 11.0804 37.7416 11.2583C37.9196 11.4363 38.0205 11.677 38.0227 11.9286C38.0249 12.1802 37.9281 12.4226 37.7533 12.6036L32.9971 17.3628C32.8167 17.5417 32.5727 17.6418 32.3186 17.6411Z" fill="white"/>
<path d="M39.1132 13.7273C38.2253 13.7264 37.3651 13.4177 36.6792 12.8537C35.9933 12.2897 35.5241 11.5054 35.3516 10.6344C35.1791 9.7633 35.3139 8.85937 35.733 8.07654C36.1522 7.29371 36.8298 6.68041 37.6504 6.3411C38.471 6.00179 39.3838 5.95746 40.2334 6.21567C41.0831 6.47387 41.8169 7.01864 42.3099 7.75717C42.8029 8.49571 43.0247 9.38232 42.9374 10.266C42.8501 11.1497 42.4591 11.9758 41.8311 12.6035C41.4745 12.9607 41.0508 13.2438 40.5843 13.4367C40.1179 13.6296 39.618 13.7283 39.1132 13.7273ZM39.1132 7.96438C38.6693 7.96495 38.2393 8.1194 37.8964 8.40141C37.5536 8.68342 37.3191 9.07557 37.2329 9.51106C37.1467 9.94655 37.2141 10.3985 37.4236 10.7898C37.6332 11.1812 37.9719 11.4878 38.3822 11.6575C38.7924 11.8271 39.2488 11.8493 39.6736 11.7203C40.0984 11.5913 40.4653 11.319 40.7118 10.9498C40.9584 10.5806 41.0694 10.1374 41.0258 9.69558C40.9823 9.25378 40.787 8.84073 40.4731 8.52676C40.2946 8.34818 40.0826 8.20657 39.8492 8.11007C39.6159 8.01357 39.3658 7.96406 39.1132 7.96438ZM42.2821 25.4557H35.5547C35.3002 25.4557 35.0561 25.3546 34.8761 25.1747C34.6961 24.9947 34.595 24.7509 34.595 24.4964C34.595 24.2419 34.6961 23.9974 34.8761 23.8174C35.0561 23.6375 35.3002 23.5364 35.5547 23.5364H42.2821C42.5367 23.5364 42.7808 23.6375 42.9608 23.8174C43.1407 23.9974 43.2418 24.2415 43.2418 24.4961C43.2418 24.7506 43.1407 24.9947 42.9608 25.1747C42.7808 25.3546 42.5367 25.4557 42.2821 25.4557Z" fill="white"/>
<path d="M45.1651 28.3388C44.4058 28.3388 43.6636 28.1137 43.0323 27.6919C42.4011 27.27 41.909 26.6705 41.6185 25.9691C41.3279 25.2676 41.2519 24.4958 41.4 23.7511C41.5482 23.0065 41.9138 22.3225 42.4506 21.7856C42.9875 21.2488 43.6715 20.8831 44.4161 20.735C45.1608 20.5869 45.9326 20.6629 46.6341 20.9535C47.3355 21.244 47.9351 21.736 48.3569 22.3673C48.7787 22.9986 49.0038 23.7408 49.0038 24.5C49.0018 25.5175 48.5967 26.4927 47.8772 27.2122C47.1578 27.9317 46.1825 28.3368 45.1651 28.3388ZM45.1651 22.573C44.7854 22.573 44.4143 22.6855 44.0987 22.8964C43.7831 23.1074 43.5371 23.4071 43.3918 23.7578C43.2465 24.1086 43.2085 24.4945 43.2826 24.8668C43.3566 25.2391 43.5394 25.5811 43.8078 25.8496C44.0763 26.118 44.4183 26.3008 44.7906 26.3749C45.1629 26.4489 45.5489 26.4109 45.8996 26.2656C46.2503 26.1204 46.5501 25.8743 46.761 25.5587C46.9719 25.2431 47.0844 24.872 47.0844 24.4924C47.0829 23.9838 46.8802 23.4964 46.5206 23.1368C46.161 22.7772 45.6736 22.5745 45.1651 22.573ZM37.0748 38.0269C36.8203 38.0269 36.5763 37.9257 36.3963 37.7457L31.6401 32.9895C31.4653 32.8085 31.3686 32.5661 31.3707 32.3144C31.3729 32.0628 31.4739 31.8221 31.6518 31.6442C31.8297 31.4662 32.0704 31.3653 32.3221 31.3631C32.5737 31.3609 32.8161 31.4577 32.9971 31.6325L37.7534 36.3887C37.8875 36.5229 37.9789 36.6939 38.0159 36.88C38.0529 37.0662 38.0339 37.2591 37.9613 37.4344C37.8887 37.6098 37.7657 37.7596 37.6079 37.8651C37.4501 37.9706 37.2646 38.0269 37.0748 38.0269Z" fill="white"/>
<path d="M39.1132 42.946C38.2252 42.9449 37.3651 42.6359 36.6793 42.0718C35.9936 41.5076 35.5246 40.7231 35.3523 39.852C35.18 38.9809 35.3151 38.077 35.7345 37.2943C36.1539 36.5115 36.8317 35.8984 37.6524 35.5594C38.4731 35.2203 39.386 35.1762 40.2355 35.4347C41.0851 35.6932 41.8187 36.2382 42.3115 36.9769C42.8043 37.7156 43.0258 38.6023 42.9382 39.486C42.8506 40.3697 42.4593 41.1956 41.8311 41.8232C41.4743 42.1801 41.0505 42.4629 40.5841 42.6556C40.1177 42.8483 39.6178 42.947 39.1132 42.946ZM39.1132 37.1831C38.6693 37.1836 38.2392 37.3381 37.8964 37.6201C37.5535 37.9021 37.319 38.2943 37.2328 38.7298C37.1466 39.1652 37.214 39.6172 37.4236 40.0085C37.6332 40.3999 37.9719 40.7065 38.3822 40.8762C38.7924 41.0458 39.2488 41.068 39.6736 40.939C40.0983 40.81 40.4652 40.5377 40.7118 40.1685C40.9584 39.7993 41.0693 39.3561 41.0258 38.9143C40.9823 38.4725 40.787 38.0594 40.4731 37.7455C40.2946 37.5669 40.0825 37.4253 39.8492 37.3288C39.6158 37.2323 39.3657 37.1828 39.1132 37.1831ZM24.5038 43.2339C24.2493 43.2339 24.0052 43.1328 23.8252 42.9529C23.6452 42.7729 23.5441 42.5288 23.5441 42.2743V35.5468C23.5441 35.2923 23.6452 35.0482 23.8252 34.8682C24.0052 34.6882 24.2493 34.5871 24.5038 34.5871C24.7583 34.5871 25.0024 34.6882 25.1824 34.8682C25.3624 35.0482 25.4635 35.2923 25.4635 35.5468V42.2743C25.4635 42.5288 25.3624 42.7729 25.1824 42.9529C25.0024 43.1328 24.7583 43.2339 24.5038 43.2339Z" fill="white"/>
<path d="M24.5038 49.0001C23.7446 49.0001 23.0024 48.775 22.3711 48.3532C21.7398 47.9314 21.2478 47.3318 20.9573 46.6304C20.6667 45.9289 20.5907 45.1571 20.7388 44.4124C20.8869 43.6678 21.2526 42.9838 21.7894 42.4469C22.3263 41.9101 23.0103 41.5445 23.7549 41.3963C24.4996 41.2482 25.2714 41.3242 25.9729 41.6148C26.6743 41.9053 27.2738 42.3974 27.6957 43.0286C28.1175 43.6599 28.3426 44.4021 28.3426 45.1613C28.3406 46.1788 27.9355 47.1541 27.216 47.8735C26.4965 48.593 25.5213 48.9981 24.5038 49.0001ZM24.5038 43.2339C24.1242 43.2339 23.7531 43.3469 23.4375 43.5578C23.1218 43.7687 22.8758 44.0684 22.7306 44.4192C22.5853 44.7699 22.5473 45.1558 22.6213 45.5281C22.6954 45.9004 22.8782 46.2424 23.1466 46.5109C23.4151 46.7793 23.7571 46.9621 24.1294 47.0362C24.5017 47.1102 24.8876 47.0722 25.2384 46.9269C25.5891 46.7817 25.8888 46.5357 26.0997 46.22C26.3107 45.9044 26.4232 45.5333 26.4232 45.1537C26.4217 44.6451 26.219 44.1578 25.8594 43.7981C25.4997 43.4385 25.0124 43.2355 24.5038 43.2339ZM11.9328 38.027C11.743 38.027 11.5575 37.9706 11.3998 37.8652C11.242 37.7597 11.119 37.6099 11.0464 37.4345C10.9738 37.2592 10.9548 37.0663 10.9918 36.8801C11.0288 36.694 11.1201 36.523 11.2543 36.3888L16.0106 31.6326C16.0997 31.5433 16.2055 31.4724 16.322 31.424C16.4385 31.3756 16.5633 31.3506 16.6895 31.3505C16.8156 31.3504 16.9406 31.3751 17.0572 31.4232C17.1737 31.4714 17.2797 31.542 17.369 31.6311C17.4583 31.7202 17.5292 31.826 17.5776 31.9425C17.626 32.059 17.6509 32.1839 17.6511 32.31C17.6512 32.4362 17.6265 32.5611 17.5783 32.6777C17.5302 32.7943 17.4595 32.9003 17.3704 32.9896L12.6142 37.7458C12.5248 37.8353 12.4185 37.9062 12.3016 37.9544C12.1846 38.0027 12.0593 38.0273 11.9328 38.027Z" fill="white"/>
<path d="M9.89441 42.9465C9.00637 42.9455 8.14612 42.6368 7.46021 42.0727C6.77429 41.5087 6.30515 40.7243 6.1327 39.8532C5.96025 38.982 6.09516 38.078 6.51445 37.2952C6.93374 36.5124 7.61147 35.8992 8.43218 35.56C9.25289 35.2208 10.1658 35.1766 11.0154 35.435C11.865 35.6935 12.5988 36.2384 13.0917 36.9771C13.5845 37.7159 13.806 38.6026 13.7184 39.4863C13.6309 40.37 13.2396 41.196 12.6113 41.8236C12.2546 42.1804 11.831 42.4632 11.3648 42.6559C10.8986 42.8486 10.3989 42.9473 9.89441 42.9465ZM9.89441 37.1835C9.45047 37.1841 9.02046 37.3385 8.6776 37.6205C8.33474 37.9026 8.10024 38.2947 8.01403 38.7302C7.92783 39.1657 7.99525 39.6176 8.20481 40.009C8.41437 40.4003 8.75312 40.7069 9.16337 40.8766C9.57361 41.0463 10.03 41.0685 10.4548 40.9394C10.8795 40.8104 11.2464 40.5381 11.493 40.1689C11.7396 39.7997 11.8505 39.3565 11.807 38.9147C11.7635 38.4729 11.5682 38.0599 11.2543 37.7459C11.0758 37.5673 10.8637 37.4257 10.6304 37.3292C10.397 37.2327 10.1469 37.1832 9.89441 37.1835ZM13.452 25.4561H6.72551C6.47098 25.4561 6.22688 25.355 6.0469 25.175C5.86693 24.995 5.76582 24.7509 5.76582 24.4964C5.76582 24.2418 5.86693 23.9977 6.0469 23.8178C6.22688 23.6378 6.47098 23.5367 6.72551 23.5367H13.452C13.7065 23.5367 13.9506 23.6378 14.1306 23.8178C14.3106 23.9977 14.4117 24.2418 14.4117 24.4964C14.4117 24.7509 14.3106 24.995 14.1306 25.175C13.9506 25.355 13.7065 25.4561 13.452 25.4561Z" fill="white"/>
<path d="M3.83877 28.3389C3.07954 28.3389 2.33735 28.1137 1.70607 27.6919C1.07478 27.2701 0.582758 26.6706 0.292211 25.9691C0.00166327 25.2677 -0.0743572 24.4958 0.0737626 23.7512C0.221882 23.0065 0.58749 22.3225 1.12435 21.7857C1.66121 21.2488 2.34522 20.8832 3.08987 20.7351C3.83452 20.587 4.60636 20.663 5.30781 20.9535C6.00925 21.2441 6.60879 21.7361 7.03059 22.3674C7.4524 22.9987 7.67754 23.7409 7.67754 24.5001C7.67552 25.5176 7.27042 26.4928 6.55095 27.2123C5.83148 27.9317 4.85626 28.3368 3.83877 28.3389ZM3.83877 22.573C3.45915 22.573 3.08806 22.6856 2.77242 22.8965C2.45678 23.1074 2.21077 23.4072 2.06549 23.7579C1.92022 24.1086 1.88221 24.4945 1.95627 24.8669C2.03033 25.2392 2.21313 25.5812 2.48156 25.8496C2.74999 26.1181 3.092 26.3009 3.46432 26.3749C3.83664 26.449 4.22257 26.411 4.57329 26.2657C4.92401 26.1204 5.22378 25.8744 5.43468 25.5588C5.64559 25.2431 5.75816 24.872 5.75816 24.4924C5.75664 23.9838 5.55393 23.4965 5.19431 23.1369C4.83468 22.7773 4.34736 22.5746 3.83877 22.573ZM16.6891 17.6412C16.563 17.6415 16.4381 17.6168 16.3216 17.5686C16.2052 17.5203 16.0994 17.4494 16.0106 17.36L11.2543 12.6037C11.0795 12.4227 10.9828 12.1803 10.985 11.9287C10.9871 11.6771 11.0881 11.4364 11.266 11.2584C11.4439 11.0805 11.6846 10.9796 11.9363 10.9774C12.1879 10.9752 12.4303 11.0719 12.6113 11.2467L17.3704 16.003C17.5046 16.1372 17.596 16.3082 17.633 16.4943C17.67 16.6804 17.651 16.8734 17.5784 17.0487C17.5058 17.224 17.3828 17.3739 17.225 17.4794C17.0672 17.5848 16.8817 17.6411 16.6919 17.6412H16.6891Z" fill="white"/>
<path d="M9.89446 13.7273C9.00643 13.7266 8.14612 13.4181 7.46007 12.8542C6.77402 12.2904 6.30467 11.5061 6.13199 10.6351C5.9593 9.764 6.09395 8.86 6.51301 8.07707C6.93206 7.29414 7.6096 6.68071 8.43019 6.34128C9.25079 6.00186 10.1637 5.95743 11.0134 6.21556C11.863 6.4737 12.5969 7.01844 13.09 7.75697C13.5831 8.49551 13.8049 9.38216 13.7177 10.2659C13.6304 11.1496 13.2394 11.9757 12.6113 12.6035C12.2548 12.9606 11.8313 13.2437 11.365 13.4365C10.8988 13.6294 10.399 13.7282 9.89446 13.7273ZM9.89446 7.96438C9.45052 7.96496 9.0205 8.1194 8.67764 8.40141C8.33478 8.68342 8.10028 9.07557 8.01407 9.51106C7.92787 9.94655 7.99529 10.3985 8.20485 10.7898C8.41442 11.1812 8.75317 11.4878 9.16341 11.6575C9.57366 11.8271 10.03 11.8493 10.4548 11.7203C10.8796 11.5913 11.2465 11.319 11.4931 10.9498C11.7396 10.5806 11.8506 10.1374 11.8071 9.69558C11.7635 9.25378 11.5682 8.84073 11.2543 8.52676C11.0758 8.34818 10.8638 8.20658 10.6304 8.11007C10.3971 8.01357 10.147 7.96406 9.89446 7.96438Z" fill="white"/>
</mask>
<g mask="url(#mask0_3359_365)">
<rect x="-3" width="56" height="49" fill="#888888"/>
</g>
</svg>
