<svg width="108" height="24" viewBox="0 0 108 24" fill="none" xmlns="http://www.w3.org/2000/svg">
<path d="M17.4926 0.451172L24.6192 23.0153H19.4362L12.3096 0.451172H17.4926Z" fill="white"/>
<path d="M7.12662 0.451172H12.3096L5.183 23.0153H0L7.12662 0.451172Z" fill="#4C5CF0"/>
<path d="M30.916 5.28662V23.0156H26.3809V5.28662H30.916Z" fill="white"/>
<path d="M30.916 0.451172H26.3809V3.35226H30.916V0.451172Z" fill="#4C5CF0"/>
<path d="M34.6598 16.7296V9.15446H32.3276V5.28633H34.6598V0.451172H39.195V5.28633H46.0624V9.15446H39.195V16.6006C39.195 18.3413 40.2639 18.8248 41.4949 18.8248H46.0624V23.0153H40.4908C37.6077 23.0153 34.6598 21.7581 34.6598 16.7296Z" fill="white"/>
<path d="M46.625 14.1512C46.625 8.15559 50.3503 4.96436 56.6023 4.96436C63.081 4.96436 66.5795 8.41346 66.5795 14.1512V14.8281H51.1925C51.4517 17.4391 53.3305 18.9864 56.6023 18.9864C58.967 18.9864 60.6515 18.2127 61.4613 16.6655H66.3528C65.381 21.0171 61.8824 23.338 56.6023 23.338C50.1235 23.338 46.625 19.8889 46.625 14.1512ZM61.4289 11.5402C60.5867 10.1219 58.967 9.31603 56.6023 9.31603C54.3023 9.31603 52.6179 10.0897 51.7756 11.5402H61.4289Z" fill="white"/>
<path d="M77.7956 9.31603C74.3619 9.31603 72.3535 10.9922 72.3535 14.1512C72.3535 17.1812 74.2647 18.9864 77.7956 18.9864C80.4519 18.9864 82.266 17.9871 82.9462 16.053H87.6433C86.8983 20.8237 83.335 23.338 77.7956 23.338C71.3169 23.338 67.8184 19.8889 67.8184 14.1512C67.8184 8.15559 71.5436 4.96436 77.7956 4.96436C83.4969 4.96436 86.8983 7.63983 87.6109 12.1849H82.9138C82.2336 10.3475 80.4843 9.31603 77.7956 9.31603Z" fill="white"/>
<path d="M98.5018 9.31565C95.6187 9.31565 93.6103 10.734 93.6103 13.345V23.0153H89.0752V0.451172H93.6103V7.28485C94.6793 5.76984 96.4933 4.96397 99.4736 4.96397C104.397 4.96397 107.928 8.12296 107.928 13.345V23.0153H103.393V13.345C103.393 10.8629 101.482 9.31565 98.5018 9.31565Z" fill="white"/>
</svg>
