<svg width="49" height="31" viewBox="0 0 49 31" fill="none" xmlns="http://www.w3.org/2000/svg">
<path d="M0.835882 10.1137H6.02824C6.25656 10.1017 6.47278 9.98568 6.63381 9.78865C6.79483 9.59163 6.88883 9.32811 6.89706 9.05064V7.1121H15.9236C13.746 8.57571 11.8458 10.579 10.3464 12.9921C8.84698 15.4052 7.78171 18.1742 7.21968 21.1196H4.31118C4.20528 21.1158 4.09985 21.138 4.00117 21.1849C3.9025 21.2317 3.81261 21.3022 3.73689 21.3923C3.66117 21.4823 3.60116 21.5899 3.56046 21.7087C3.51976 21.8276 3.49919 21.9552 3.5 22.0839V30.0119C3.49881 30.1418 3.51896 30.2707 3.55927 30.3911C3.59959 30.5115 3.65926 30.6208 3.7348 30.7128C3.81033 30.8048 3.90022 30.8776 3.99919 30.9269C4.09815 30.9762 4.20422 31.001 4.31118 30.9999H10.8356C10.9418 31.0006 11.047 30.9754 11.145 30.9257C11.243 30.8761 11.3318 30.803 11.4062 30.7108C11.4805 30.6187 11.5388 30.5093 11.5777 30.3892C11.6165 30.2692 11.6351 30.1408 11.6324 30.0119V22.0839C11.6348 21.9561 11.6158 21.8291 11.5766 21.7105C11.5374 21.592 11.4787 21.4843 11.4042 21.3941C11.3297 21.3039 11.2408 21.2331 11.1431 21.1859C11.0454 21.1387 10.9407 21.1162 10.8356 21.1196H8.91646C9.61686 17.7953 11.0278 14.7548 13.0064 12.306C14.985 9.85718 17.461 8.08699 20.1838 7.17463C20.485 8.252 21.0564 9.18771 21.8177 9.85043C22.579 10.5131 23.492 10.8696 24.4286 10.8697C25.3651 10.8699 26.2782 10.5137 27.0396 9.85119C27.801 9.18871 28.3726 8.25316 28.6741 7.17588C31.3971 8.08721 33.8734 9.85692 35.8521 12.3056C37.8307 14.7544 39.2414 17.7951 39.9412 21.1196H38.0224C37.5675 21.1196 37.1618 21.5313 37.1618 22.0839V30.0119C37.1618 30.5645 37.5675 30.9999 38.0224 30.9999H44.5468C44.7669 31.0039 44.9795 30.9025 45.1386 30.7176C45.2977 30.5328 45.3906 30.2792 45.3971 30.0119V22.0839C45.3971 21.5313 45.0017 21.1196 44.5468 21.1196H41.6375C41.0763 18.1743 40.0117 15.4053 38.5128 12.9922C37.014 10.579 35.1142 8.57569 32.937 7.1121H42.1029V9.05064C42.1112 9.32811 42.2052 9.59163 42.3662 9.78865C42.5272 9.98568 42.7434 10.1017 42.9718 10.1137H48.1641C48.6189 10.1137 49 9.60318 49 9.05064V2.74101C48.9974 2.47346 48.9083 2.21788 48.7519 2.0295C48.5955 1.84112 48.3844 1.73506 48.1641 1.73422H42.9718C42.5169 1.73422 42.1029 2.18834 42.1029 2.74101V5.11103H28.894C28.8262 3.72817 28.3262 2.42899 27.4963 1.47902C26.6664 0.529048 25.5692 0 24.429 0C23.2887 0 22.1915 0.529048 21.3616 1.47902C20.5317 2.42899 20.0317 3.72817 19.9639 5.11103H6.89706V2.74101C6.89706 2.18834 6.48313 1.73422 6.02824 1.73422H0.835882C0.615648 1.73506 0.404525 1.84112 0.248122 2.0295C0.0917199 2.21788 0.00259438 2.47346 0 2.74101V9.05064C0 9.60318 0.380882 10.1137 0.835882 10.1137ZM9.98529 23.1207V28.9988H5.14706V23.1207H9.98529ZM43.75 23.1207V28.9988H38.8088V23.1207H43.75ZM43.75 3.73529H47.3529V8.11263H43.75V3.73529ZM22.4295 3.00828C22.892 2.44577 23.5008 2.09552 24.152 2.01719C24.8032 1.93887 25.4566 2.13732 26.0009 2.57874C26.5452 3.02016 26.9467 3.67722 27.1369 4.43796C27.3271 5.1987 27.2943 6.01604 27.0441 6.75069C26.7939 7.48535 26.3418 8.09187 25.7647 8.46688C25.1877 8.8419 24.5215 8.96221 23.8796 8.80731C23.2377 8.65242 22.6599 8.2319 22.2446 7.61742C21.8294 7.00294 21.6023 6.23252 21.6022 5.43745C21.6011 4.9862 21.6736 4.53917 21.8156 4.1222C21.9577 3.70524 22.1663 3.32663 22.4295 3.00828ZM1.64706 3.73529H5.25V8.11263H1.64706V3.73529Z" fill="#888888"/>
</svg>
