<svg width="56" height="49" viewBox="0 0 56 49" fill="none" xmlns="http://www.w3.org/2000/svg">
<path d="M27.9988 6.57967C16.2151 6.57967 6.6291 16.0941 6.6291 27.7898C6.6291 33.2364 8.72558 38.194 12.1369 41.9538L6.95864 47.0944L8.549 48.6729L13.7272 43.5322C17.5164 46.9192 22.5113 49 27.9977 49C33.4841 49 38.479 46.9192 42.2682 43.5322L47.4464 48.6729L49.0368 47.0944L43.8585 41.9538C47.2698 38.194 49.3663 33.2364 49.3663 27.7898C49.3686 16.0952 39.7826 6.57967 27.9988 6.57967ZM27.9988 46.7674C17.4557 46.7674 8.87854 38.2543 8.87854 27.7898C8.87854 17.3254 17.4557 8.81232 27.9988 8.81232C38.542 8.81232 47.1191 17.3254 47.1191 27.7898C47.1191 38.2543 38.542 46.7674 27.9988 46.7674Z" fill="#888888"/>
<path d="M52.6235 3.35125C50.4461 1.19005 47.551 4.66335e-05 44.4715 4.66335e-05C41.3921 4.66335e-05 38.4959 1.19005 36.3196 3.35125L35.5244 4.14049L51.8272 20.3216L52.6224 19.5324C53.6966 18.4725 54.5483 17.2116 55.128 15.8227C55.7078 14.4339 56.0042 12.9446 56 11.4413C56 8.38476 54.801 5.51134 52.6235 3.35125ZM51.78 17.1178L38.7523 4.18738C40.3827 2.91551 42.3978 2.2268 44.4715 2.2327C46.9504 2.2327 49.2797 3.1905 51.0332 4.92974C52.7866 6.66897 53.7505 8.98088 53.7505 11.4413C53.7559 13.4996 53.0616 15.4995 51.78 17.1178ZM19.6793 3.35125C18.6114 2.2855 17.3411 1.44056 15.942 0.865321C14.5429 0.290087 13.0428 -0.00401216 11.5284 4.66335e-05C10.0137 -0.00426048 8.51324 0.28983 7.1139 0.865277C5.71456 1.44072 4.4442 2.28608 3.37642 3.35237C1.19896 5.51357 0 8.38588 0 11.4424C0 14.4989 1.19896 17.3723 3.37642 19.5324L4.1716 20.3216L20.4745 4.14049L19.6793 3.35125ZM4.21771 17.1178C2.9358 15.5002 2.24185 13.5004 2.24832 11.4424C2.24466 10.2325 2.48296 9.03403 2.94941 7.91628C3.41586 6.79853 4.10118 5.78379 4.96565 4.93085C5.82516 4.07265 6.8477 3.39226 7.97404 2.9291C9.10037 2.46595 10.3081 2.22924 11.5273 2.2327C13.6006 2.22697 15.6153 2.91567 17.2454 4.18738L4.21771 17.1178ZM29.1236 12.1613H26.8741V28.252L33.952 35.277L35.5424 33.6985L29.1236 27.3277V12.1613Z" fill="#888888"/>
</svg>
