<svg width="41" height="29" viewBox="0 0 41 29" fill="none" xmlns="http://www.w3.org/2000/svg">
<path d="M34.2561 8.48086V8.98086H34.7561H35.9333C38.4279 8.98086 40.2233 11.3763 39.5236 13.7706L36.2186 25.0784C36.2186 25.0784 36.2186 25.0784 36.2186 25.0784C35.7523 26.6734 34.29 27.7695 32.6283 27.7695H6.47812C3.63169 27.7695 1.32422 25.4621 1.32422 22.6156V5.6539C1.32422 2.80748 3.6317 0.5 6.47812 0.5H11.4335C11.6408 0.5 11.8419 0.570499 12.0039 0.699918L15.1402 3.20656L15.2771 3.31598H15.4523H29.1022C31.9487 3.31598 34.2561 5.62346 34.2561 8.46989V8.48086ZM11.2503 2.43637L11.1134 2.32695H10.9381H6.47812C4.64071 2.32695 3.15117 3.81649 3.15117 5.6539V19.3837L4.13117 19.5237L6.42066 11.674C6.88615 10.078 8.34908 8.98086 10.0115 8.98086H31.9292H32.4292V8.48086V8.46989C32.4292 6.63245 30.9397 5.14294 29.1022 5.14294H14.9569C14.7496 5.14294 14.5485 5.07244 14.3866 4.94303C14.3866 4.94303 14.3866 4.94302 14.3865 4.94302L11.2503 2.43637ZM8.17454 12.1855L8.17454 12.1855L4.87645 23.4933C4.51924 24.7179 5.43772 25.9426 6.71338 25.9426H32.6283C33.4782 25.9426 34.2264 25.3819 34.4649 24.566L37.7698 13.2582C37.7698 13.2581 37.7698 13.2581 37.7698 13.2581C38.128 12.0332 37.2095 10.8078 35.9333 10.8078H10.0115C9.16103 10.8078 8.41269 11.3691 8.17454 12.1855Z" fill="#888888" stroke="#888888"/>
</svg>
