<svg width="45" height="53" viewBox="0 0 45 53" fill="none" xmlns="http://www.w3.org/2000/svg">
<path d="M35.5877 5.79952C32.8467 4.06585 29.206 4.92203 27.463 7.67784L22.6902 15.2239L21.3612 14.3833C20.5877 13.8941 19.5024 14.0379 18.9949 14.8402L17.2298 17.6309C16.7224 18.4332 17.0575 19.4754 17.831 19.9647L18.4639 20.365C18.7944 20.574 18.9394 21.1541 18.5687 21.7402L8.1283 38.2471C8.07015 38.3387 8.03076 38.4409 8.01239 38.548C7.99401 38.655 7.99701 38.7648 8.02122 38.8709L8.99329 43.1057L8.29344 44.2122C7.56799 45.3592 7.92316 46.9083 9.0792 47.6395C10.2352 48.3707 11.7871 48.0277 12.5126 46.8807L13.2124 45.7742L17.4552 44.8378C17.5615 44.8142 17.662 44.7699 17.7508 44.7074C17.8396 44.6449 17.9151 44.5655 17.973 44.4737L28.4134 27.9668C28.7841 27.3807 29.3675 27.2614 29.6966 27.4695L30.3337 27.8725C31.1072 28.3617 32.1925 28.2179 32.7 27.4156L34.4651 24.6249C34.9725 23.8226 34.6374 22.7803 33.8639 22.2911L32.5981 21.4905L37.3709 13.9445C39.1139 11.1887 38.3288 7.53319 35.5877 5.79952ZM34.7052 7.19487C36.6741 8.44019 37.2442 11.0317 35.9645 13.055L31.1918 20.601L24.0966 16.1134L28.8694 8.56736C30.149 6.5441 32.7363 5.94954 34.7052 7.19487ZM33.8897 9.08193C33.28 8.9874 32.6642 9.01788 32.0748 9.15892C30.8469 9.45775 29.7867 10.2209 29.1179 11.2876L26.3837 15.6104L27.7901 16.4999L30.5242 12.1771C30.9973 11.4292 31.7067 10.9519 32.4735 10.7669C32.8574 10.6736 33.2545 10.6591 33.6421 10.7187L33.8897 9.08193ZM20.4013 15.7297C20.3828 15.759 20.3844 15.719 20.4786 15.7786L22.404 16.9964C22.4657 17.0494 22.5349 17.0932 22.6093 17.1263L30.9055 22.3735C30.9666 22.4257 31.0348 22.4688 31.1081 22.5016L32.9813 23.6864C33.0756 23.746 33.0402 23.7647 33.0587 23.7354L31.2936 26.5261C31.3122 26.4968 31.3105 26.5367 31.2163 26.4771L18.7136 18.5693C18.6193 18.5097 18.6547 18.4911 18.6362 18.5204L20.4013 15.7297ZM20.385 21.58L27.7797 26.2571C27.4726 26.4796 27.2105 26.7578 27.007 27.0773L16.7493 43.2954L12.5065 44.2318C12.4002 44.2554 12.2997 44.2998 12.2109 44.3622C12.122 44.4247 12.0466 44.5041 11.9887 44.5959L11.1062 45.9912C10.8538 46.3903 10.364 46.4986 9.96174 46.2441C9.86731 46.1876 9.78525 46.1127 9.72055 46.0238C9.65585 45.9349 9.60986 45.834 9.58536 45.7272C9.56087 45.6203 9.55838 45.5098 9.57806 45.4023C9.59773 45.2948 9.63916 45.1925 9.69982 45.1017L10.5824 43.7064C10.6405 43.6148 10.6799 43.5126 10.6983 43.4055C10.7166 43.2985 10.7137 43.1887 10.6894 43.0825L9.71737 38.8478L19.9751 22.6297C20.1768 22.309 20.3158 21.9529 20.385 21.58ZM21.0903 23.9797L11.3823 39.3285L12.7887 40.218L22.4966 24.8692L21.0903 23.9797Z" fill="#888888"/>
<path d="M42.396 17.352C46.8961 28.3404 41.6363 40.8962 30.6479 45.3963C27.8864 46.5273 25.0258 47.0418 22.219 47.0039M2.60362 33.6483C-1.89647 22.6599 3.36331 10.1041 14.3517 5.60397C15.7799 5.01906 17.2347 4.59903 18.6947 4.33504" stroke="#888888" stroke-width="2" stroke-linecap="round" stroke-linejoin="bevel"/>
</svg>
