<svg width="43" height="50" viewBox="0 0 43 50" fill="none" xmlns="http://www.w3.org/2000/svg">
<path d="M1.458 21.5125H4.52658C4.78306 21.5125 4.98458 21.7188 4.98458 21.9813C4.98458 22.2438 4.78306 22.45 4.52658 22.45H1.458C1.20152 22.45 1 22.2438 1 21.9813C1 21.7188 1.20152 21.5125 1.458 21.5125ZM38.4734 21.5125H41.542C41.7985 21.5125 42 21.7188 42 21.9813C42 22.2438 41.7985 22.45 41.542 22.45H38.4734C38.2169 22.45 38.0154 22.2438 38.0154 21.9813C38.0154 21.7188 38.2169 21.5125 38.4734 21.5125ZM7.65013 7.14062L9.82104 9.3625C10.0042 9.55 10.0042 9.84063 9.82104 10.0281C9.72945 10.1219 9.61037 10.1688 9.50045 10.1688C9.38137 10.1688 9.26229 10.1219 9.17985 10.0281L7.00893 7.80625C6.82573 7.61875 6.82573 7.32812 7.00893 7.14062C7.19213 6.95312 7.47609 6.9625 7.65013 7.14062ZM21.5 5.07812C21.2435 5.07812 21.042 4.87187 21.042 4.60938V1.46875C21.042 1.20625 21.2435 1 21.5 1C21.7565 1 21.958 1.20625 21.958 1.46875V4.60938C21.958 4.8625 21.7473 5.07812 21.5 5.07812ZM33.4996 10.1688C33.3805 10.1688 33.2614 10.1219 33.179 10.0281C32.9958 9.84063 32.9958 9.55 33.179 9.3625L35.3499 7.14062C35.5331 6.95312 35.817 6.95312 36.0002 7.14062C36.1834 7.32812 36.1834 7.61875 36.0002 7.80625L33.8293 10.0281C33.7377 10.1219 33.6186 10.1688 33.4996 10.1688ZM2.55719 13.9469C2.65795 13.7031 2.92359 13.5906 3.15259 13.6937L5.98302 14.8937C6.22118 14.9969 6.33109 15.2687 6.23034 15.5031C6.15706 15.6812 5.98302 15.7938 5.80898 15.7938C5.75402 15.7938 5.6899 15.7844 5.63494 15.7562L2.80451 14.5563C2.57551 14.4625 2.46559 14.1906 2.55719 13.9469ZM15.1796 6.3625C15.1247 6.39063 15.0605 6.4 15.0056 6.4C14.8224 6.4 14.6575 6.2875 14.5842 6.10938L13.4118 3.2125C13.311 2.96875 13.4301 2.69688 13.6591 2.60313C13.8972 2.5 14.1629 2.62187 14.2545 2.85625L15.4269 5.75313C15.5277 5.9875 15.4086 6.25938 15.1796 6.3625ZM28.4158 6.10938C28.3425 6.2875 28.1685 6.4 27.9944 6.4C27.9395 6.4 27.8753 6.39063 27.8204 6.3625C27.5822 6.25938 27.4723 5.9875 27.5731 5.75313L28.7455 2.85625C28.8463 2.6125 29.1119 2.5 29.3409 2.60313C29.5791 2.70625 29.689 2.97813 29.5882 3.2125L28.4158 6.10938ZM37.0078 14.8937L39.8382 13.6937C40.0764 13.5906 40.342 13.7125 40.4336 13.9469C40.5344 14.1906 40.4153 14.4625 40.1863 14.5563L37.3559 15.7562C37.3009 15.7844 37.2368 15.7938 37.1819 15.7938C36.9987 15.7938 36.8338 15.6812 36.7605 15.5031C36.6597 15.2687 36.7697 14.9969 37.0078 14.8937ZM19.9153 7.68438C28.4982 6.72813 35.5422 13.6187 35.5422 21.9719C35.5422 25.3937 34.3514 28.7031 32.1988 31.2906C30.1653 33.7281 29.0936 36.5594 29.0936 39.4938V41.4531H30.1104C30.3668 41.4531 30.5684 41.6594 30.5684 41.9219C30.5684 42.1844 30.3668 42.3906 30.1104 42.3906H29.0936V42.5687C29.0936 43.8156 28.1043 44.8281 26.8861 44.8281H26.0159C25.7869 47.1625 23.8449 49 21.4908 49C19.1367 49 17.1948 47.1719 16.9658 44.8281H16.0956C14.8773 44.8281 13.8881 43.8156 13.8881 42.5687V42.3906H12.8896C12.6332 42.3906 12.4316 42.1844 12.4316 41.9219C12.4316 41.6594 12.6332 41.4531 12.8896 41.4531H13.9064V39.4938C13.9064 36.4844 12.8896 33.6813 11.0485 31.5813C8.30049 28.45 7.03641 24.2406 7.57685 20.0406C8.41041 13.5813 13.5675 8.40625 19.9153 7.68438ZM21.5 48.0625C23.3503 48.0625 24.8709 46.6469 25.0999 44.8281H17.9001C18.1291 46.6469 19.6497 48.0625 21.5 48.0625ZM14.8224 42.5687C14.8224 43.3 15.3995 43.8906 16.1139 43.8906C19.4848 43.8906 23.6343 43.8906 26.8952 43.8906C27.6097 43.8906 28.1868 43.3 28.1868 42.5687V39.9625C26.6845 39.9625 16.8834 39.9625 14.8224 39.9625V42.5687ZM19.8512 18.1469H23.1488C22.9381 17.7625 22.1687 16.3281 22.1046 16.2156C21.9855 15.9906 21.7565 15.85 21.5 15.85C21.2435 15.85 21.0145 15.9906 20.8954 16.2156L19.8512 18.1469ZM23.6526 19.0844H19.3382L17.6986 22.1125H25.2922L23.6526 19.0844ZM17.378 23.05V39.025H21.042V23.05H17.378ZM25.622 23.05H21.958V39.025H25.622V23.05ZM11.7263 30.9531C13.6224 33.1094 14.7125 35.9594 14.8132 39.025H16.462V22.5812C16.462 22.5156 16.4803 22.4219 16.517 22.3563L20.0802 15.7656C20.3642 15.2313 20.8954 14.9219 21.4908 14.9219C22.0862 14.9219 22.6084 15.2406 22.8923 15.7656L26.4647 22.3563C26.5013 22.4313 26.5197 22.5156 26.5197 22.5812V39.025H28.1868C28.2967 36.0719 29.4692 33.1281 31.5027 30.6813C33.5179 28.2625 34.6262 25.1688 34.6262 21.9625C34.6262 14.2188 28.0952 7.70312 20.0161 8.6125C14.1079 9.27812 9.25313 14.1344 8.48369 20.1531C7.97989 24.0906 9.16152 28.0281 11.7263 30.9531Z" fill="#888888" stroke="#888888"/>
</svg>
